<svg width="29" height="28" viewBox="0 0 29 28" fill="none" xmlns="http://www.w3.org/2000/svg">
<ellipse cx="14.7398" cy="13.9007" rx="13.9477" ry="13.9007" fill="#36A510"/>
<path d="M22.901 14C22.901 14.6 22.499 15 21.896 15H15.8663V21C15.8663 21.6 15.4644 22 14.8614 22C14.2584 22 13.8564 21.6 13.8564 21V15H7.82674C7.22377 15 6.82179 14.6 6.82179 14C6.82179 13.4 7.22377 13 7.82674 13H13.8564V7C13.8564 6.4 14.2584 6 14.8614 6C15.4644 6 15.8663 6.4 15.8663 7V13H21.896C22.499 13 22.901 13.4 22.901 14Z" fill="white"/>
<mask id="mask0" mask-type="alpha" maskUnits="userSpaceOnUse" x="6" y="6" width="17" height="16">
<path d="M22.901 14C22.901 14.6 22.499 15 21.896 15H15.8663V21C15.8663 21.6 15.4644 22 14.8614 22C14.2584 22 13.8564 21.6 13.8564 21V15H7.82674C7.22377 15 6.82179 14.6 6.82179 14C6.82179 13.4 7.22377 13 7.82674 13H13.8564V7C13.8564 6.4 14.2584 6 14.8614 6C15.4644 6 15.8663 6.4 15.8663 7V13H21.896C22.499 13 22.901 13.4 22.901 14Z" fill="white"/>
</mask>
<g mask="url(#mask0)">
<path fill-rule="evenodd" clip-rule="evenodd" d="M2.80199 2H26.9208V26H2.80199V2Z" fill="white"/>
</g>
</svg>
