<svg width="28" height="28" viewBox="0 0 28 28" fill="none" xmlns="http://www.w3.org/2000/svg">
<path d="M24.5001 13.9997C24.5001 14.6997 24.0335 15.1663 23.3335 15.1663H7.4668L12.4835 20.183C12.9501 20.6497 12.9501 21.3497 12.4835 21.8163C12.2501 22.0497 12.0168 22.1663 11.6668 22.1663C11.3168 22.1663 11.0835 22.0497 10.8501 21.8163L3.85013 14.8163C3.73346 14.6997 3.6168 14.583 3.6168 14.4663C3.50013 14.233 3.50013 13.883 3.6168 13.533C3.73346 13.4163 3.73346 13.2997 3.85013 13.183L10.8501 6.18301C11.3168 5.71634 12.0168 5.71634 12.4835 6.18301C12.9501 6.64967 12.9501 7.34967 12.4835 7.81634L7.4668 12.833H23.3335C24.0335 12.833 24.5001 13.2997 24.5001 13.9997Z" fill="#333333"/>
<mask id="mask0" mask-type="alpha" maskUnits="userSpaceOnUse" x="3" y="5" width="22" height="18">
<path d="M24.5001 13.9997C24.5001 14.6997 24.0335 15.1663 23.3335 15.1663H7.4668L12.4835 20.183C12.9501 20.6497 12.9501 21.3497 12.4835 21.8163C12.2501 22.0497 12.0168 22.1663 11.6668 22.1663C11.3168 22.1663 11.0835 22.0497 10.8501 21.8163L3.85013 14.8163C3.73346 14.6997 3.6168 14.583 3.6168 14.4663C3.50013 14.233 3.50013 13.883 3.6168 13.533C3.73346 13.4163 3.73346 13.2997 3.85013 13.183L10.8501 6.18301C11.3168 5.71634 12.0168 5.71634 12.4835 6.18301C12.9501 6.64967 12.9501 7.34967 12.4835 7.81634L7.4668 12.833H23.3335C24.0335 12.833 24.5001 13.2997 24.5001 13.9997Z" fill="white"/>
</mask>
<g mask="url(#mask0)">
<path fill-rule="evenodd" clip-rule="evenodd" d="M0 0H28V28H0V0Z" fill="#333333"/>
</g>
</svg>
