<svg width="32" height="32" viewBox="0 0 32 32" fill="none" xmlns="http://www.w3.org/2000/svg">
<path d="M27.6 10.2667L12.9333 24.9333C12.6667 25.2 12.4 25.3333 12 25.3333C11.6 25.3333 11.3333 25.2 11.0667 24.9333L4.4 18.2667C3.86667 17.7333 3.86667 16.9333 4.4 16.4C4.93333 15.8667 5.73333 15.8667 6.26667 16.4L12 22.1333L25.7333 8.4C26.2667 7.86667 27.0667 7.86667 27.6 8.4C28.1333 8.93333 28.1333 9.73333 27.6 10.2667Z" fill="#36A510"/>
<mask id="mask0" mask-type="alpha" maskUnits="userSpaceOnUse" x="4" y="8" width="24" height="18">
<path d="M27.6 10.2667L12.9333 24.9333C12.6667 25.2 12.4 25.3333 12 25.3333C11.6 25.3333 11.3333 25.2 11.0667 24.9333L4.4 18.2667C3.86667 17.7333 3.86667 16.9333 4.4 16.4C4.93333 15.8667 5.73333 15.8667 6.26667 16.4L12 22.1333L25.7333 8.4C26.2667 7.86667 27.0667 7.86667 27.6 8.4C28.1333 8.93333 28.1333 9.73333 27.6 10.2667Z" fill="white"/>
</mask>
<g mask="url(#mask0)">
<path fill-rule="evenodd" clip-rule="evenodd" d="M0 0H32V32H0V0Z" fill="#36A510"/>
</g>
</svg>
