<svg width="28" height="28" viewBox="0 0 28 28" fill="none" xmlns="http://www.w3.org/2000/svg">
<path fill-rule="evenodd" clip-rule="evenodd" d="M21 3.49984H19.8333C19.8333 2.2165 18.7833 1.1665 17.5 1.1665H10.5C9.21667 1.1665 8.16667 2.2165 8.16667 3.49984H7C5.01667 3.49984 3.5 5.0165 3.5 6.99984V23.3332C3.5 25.3165 5.01667 26.8332 7 26.8332H21C22.9833 26.8332 24.5 25.3165 24.5 23.3332V6.99984C24.5 5.0165 22.9833 3.49984 21 3.49984ZM10.5 3.49984H17.5V5.83317H10.5V4.6665V3.49984ZM21 24.4998C21.7 24.4998 22.1667 24.0332 22.1667 23.3332V6.99984C22.1667 6.29984 21.7 5.83317 21 5.83317H19.8333C19.8333 7.1165 18.7833 8.1665 17.5 8.1665H10.5C9.21667 8.1665 8.16667 7.1165 8.16667 5.83317H7C6.3 5.83317 5.83333 6.29984 5.83333 6.99984V23.3332C5.83333 24.0332 6.3 24.4998 7 24.4998H21Z" fill="#333333"/>
<mask id="mask0" mask-type="alpha" maskUnits="userSpaceOnUse" x="3" y="1" width="22" height="26">
<path fill-rule="evenodd" clip-rule="evenodd" d="M21 3.49984H19.8333C19.8333 2.2165 18.7833 1.1665 17.5 1.1665H10.5C9.21667 1.1665 8.16667 2.2165 8.16667 3.49984H7C5.01667 3.49984 3.5 5.0165 3.5 6.99984V23.3332C3.5 25.3165 5.01667 26.8332 7 26.8332H21C22.9833 26.8332 24.5 25.3165 24.5 23.3332V6.99984C24.5 5.0165 22.9833 3.49984 21 3.49984ZM10.5 3.49984H17.5V5.83317H10.5V4.6665V3.49984ZM21 24.4998C21.7 24.4998 22.1667 24.0332 22.1667 23.3332V6.99984C22.1667 6.29984 21.7 5.83317 21 5.83317H19.8333C19.8333 7.1165 18.7833 8.1665 17.5 8.1665H10.5C9.21667 8.1665 8.16667 7.1165 8.16667 5.83317H7C6.3 5.83317 5.83333 6.29984 5.83333 6.99984V23.3332C5.83333 24.0332 6.3 24.4998 7 24.4998H21Z" fill="white"/>
</mask>
<g mask="url(#mask0)">
<path fill-rule="evenodd" clip-rule="evenodd" d="M0 0H28V28H0V0Z" fill="#333333"/>
</g>
</svg>
