<svg width="28" height="28" viewBox="0 0 28 28" fill="none" xmlns="http://www.w3.org/2000/svg">
<path fill-rule="evenodd" clip-rule="evenodd" d="M5.83317 18.6665C6.53317 18.6665 6.99984 18.1998 6.99984 17.4998C6.99984 16.7998 6.53317 16.3332 5.83317 16.3332H4.6665C3.9665 16.3332 3.49984 15.8665 3.49984 15.1665V4.6665C3.49984 3.9665 3.9665 3.49984 4.6665 3.49984H15.1665C15.8665 3.49984 16.3332 3.9665 16.3332 4.6665V5.83317C16.3332 6.53317 16.7998 6.99984 17.4998 6.99984C18.1998 6.99984 18.6665 6.53317 18.6665 5.83317V4.6665C18.6665 2.68317 17.1498 1.1665 15.1665 1.1665H4.6665C2.68317 1.1665 1.1665 2.68317 1.1665 4.6665V15.1665C1.1665 17.1498 2.68317 18.6665 4.6665 18.6665H5.83317ZM23.3332 9.33317H12.8332C10.8498 9.33317 9.33317 10.8498 9.33317 12.8332V23.3332C9.33317 25.3165 10.8498 26.8332 12.8332 26.8332H23.3332C25.3165 26.8332 26.8332 25.3165 26.8332 23.3332V12.8332C26.8332 10.8498 25.3165 9.33317 23.3332 9.33317ZM24.4998 23.3332C24.4998 24.0332 24.0332 24.4998 23.3332 24.4998H12.8332C12.1332 24.4998 11.6665 24.0332 11.6665 23.3332V12.8332C11.6665 12.1332 12.1332 11.6665 12.8332 11.6665H23.3332C24.0332 11.6665 24.4998 12.1332 24.4998 12.8332V23.3332Z" fill="#333333"/>
<mask id="mask0" mask-type="alpha" maskUnits="userSpaceOnUse" x="1" y="1" width="26" height="26">
<path fill-rule="evenodd" clip-rule="evenodd" d="M5.83317 18.6665C6.53317 18.6665 6.99984 18.1998 6.99984 17.4998C6.99984 16.7998 6.53317 16.3332 5.83317 16.3332H4.6665C3.9665 16.3332 3.49984 15.8665 3.49984 15.1665V4.6665C3.49984 3.9665 3.9665 3.49984 4.6665 3.49984H15.1665C15.8665 3.49984 16.3332 3.9665 16.3332 4.6665V5.83317C16.3332 6.53317 16.7998 6.99984 17.4998 6.99984C18.1998 6.99984 18.6665 6.53317 18.6665 5.83317V4.6665C18.6665 2.68317 17.1498 1.1665 15.1665 1.1665H4.6665C2.68317 1.1665 1.1665 2.68317 1.1665 4.6665V15.1665C1.1665 17.1498 2.68317 18.6665 4.6665 18.6665H5.83317ZM23.3332 9.33317H12.8332C10.8498 9.33317 9.33317 10.8498 9.33317 12.8332V23.3332C9.33317 25.3165 10.8498 26.8332 12.8332 26.8332H23.3332C25.3165 26.8332 26.8332 25.3165 26.8332 23.3332V12.8332C26.8332 10.8498 25.3165 9.33317 23.3332 9.33317ZM24.4998 23.3332C24.4998 24.0332 24.0332 24.4998 23.3332 24.4998H12.8332C12.1332 24.4998 11.6665 24.0332 11.6665 23.3332V12.8332C11.6665 12.1332 12.1332 11.6665 12.8332 11.6665H23.3332C24.0332 11.6665 24.4998 12.1332 24.4998 12.8332V23.3332Z" fill="white"/>
</mask>
<g mask="url(#mask0)">
<path fill-rule="evenodd" clip-rule="evenodd" d="M0 0H28V28H0V0Z" fill="#333333"/>
</g>
</svg>
