<svg width="28" height="28" viewBox="0 0 28 28" fill="none" xmlns="http://www.w3.org/2000/svg">
<ellipse cx="13.879" cy="13.9007" rx="13.879" ry="13.9007" fill="#C4C4C4"/>
<path d="M19.6908 18.5051C20.0378 18.8527 20.0378 19.3739 19.6908 19.7215C19.5173 19.8952 19.3438 19.9821 19.0836 19.9821C18.8234 19.9821 18.6499 19.8952 18.4764 19.7215L13.879 15.1168L9.28156 19.7215C9.10807 19.8952 8.93458 19.9821 8.67435 19.9821C8.41412 19.9821 8.24063 19.8952 8.06715 19.7215C7.72017 19.3739 7.72017 18.8527 8.06715 18.5051L12.6646 13.9005L8.06715 9.29592C7.72017 8.9484 7.72017 8.42713 8.06715 8.07961C8.41412 7.73209 8.93458 7.73209 9.28156 8.07961L13.879 12.6842L18.4764 8.07961C18.8234 7.73209 19.3438 7.73209 19.6908 8.07961C20.0378 8.42713 20.0378 8.9484 19.6908 9.29592L15.0934 13.9005L19.6908 18.5051Z" fill="#E5E5E5"/>
<mask id="mask0" mask-type="alpha" maskUnits="userSpaceOnUse" x="7" y="7" width="13" height="13">
<path d="M19.6908 18.5051C20.0378 18.8527 20.0378 19.3739 19.6908 19.7215C19.5173 19.8952 19.3438 19.9821 19.0836 19.9821C18.8234 19.9821 18.6499 19.8952 18.4764 19.7215L13.879 15.1168L9.28156 19.7215C9.10807 19.8952 8.93458 19.9821 8.67435 19.9821C8.41412 19.9821 8.24063 19.8952 8.06715 19.7215C7.72017 19.3739 7.72017 18.8527 8.06715 18.5051L12.6646 13.9005L8.06715 9.29592C7.72017 8.9484 7.72017 8.42713 8.06715 8.07961C8.41412 7.73209 8.93458 7.73209 9.28156 8.07961L13.879 12.6842L18.4764 8.07961C18.8234 7.73209 19.3438 7.73209 19.6908 8.07961C20.0378 8.42713 20.0378 8.9484 19.6908 9.29592L15.0934 13.9005L19.6908 18.5051Z" fill="white"/>
</mask>
<g mask="url(#mask0)">
<path fill-rule="evenodd" clip-rule="evenodd" d="M3.46973 3.47501H24.2882V24.3261H3.46973V3.47501Z" fill="#E5E5E5"/>
</g>
</svg>
