<svg width="32" height="32" viewBox="0 0 32 32" fill="none" xmlns="http://www.w3.org/2000/svg">
<path fill-rule="evenodd" clip-rule="evenodd" d="M22.2666 3.06666L28.9333 9.73332C29.4666 10.2667 29.4666 11.0667 28.9333 11.6L11.6 28.9333C11.3333 29.2 11.0666 29.3333 10.6666 29.3333H3.99996C3.19996 29.3333 2.66663 28.8 2.66663 28V21.3333C2.66663 20.9333 2.79996 20.6667 3.06663 20.4L20.4 3.06666C20.9333 2.53332 21.7333 2.53332 22.2666 3.06666ZM5.33329 26.6667H10.1333L26.1333 10.6667L21.3333 5.86666L5.33329 21.8667V26.6667Z" fill="black"/>
<mask id="mask0" mask-type="alpha" maskUnits="userSpaceOnUse" x="2" y="2" width="28" height="28">
<path fill-rule="evenodd" clip-rule="evenodd" d="M22.2666 3.06666L28.9333 9.73332C29.4666 10.2667 29.4666 11.0667 28.9333 11.6L11.6 28.9333C11.3333 29.2 11.0666 29.3333 10.6666 29.3333H3.99996C3.19996 29.3333 2.66663 28.8 2.66663 28V21.3333C2.66663 20.9333 2.79996 20.6667 3.06663 20.4L20.4 3.06666C20.9333 2.53332 21.7333 2.53332 22.2666 3.06666ZM5.33329 26.6667H10.1333L26.1333 10.6667L21.3333 5.86666L5.33329 21.8667V26.6667Z" fill="white"/>
</mask>
<g mask="url(#mask0)">
<path fill-rule="evenodd" clip-rule="evenodd" d="M0 0H32V32H0V0Z" fill="black"/>
</g>
</svg>
