<svg width="28" height="28" viewBox="0 0 28 28" fill="none" xmlns="http://www.w3.org/2000/svg">
<path fill-rule="evenodd" clip-rule="evenodd" d="M3.50016 20.9998H8.16683C8.51683 20.9998 8.75016 20.8832 8.9835 20.6498L21.8168 7.8165C22.2835 7.34984 22.2835 6.64984 21.8168 6.18317L17.1502 1.5165C16.6835 1.04984 15.9835 1.04984 15.5168 1.5165L2.6835 14.3498C2.45016 14.5832 2.3335 14.8165 2.3335 15.1665V19.8332C2.3335 20.5332 2.80016 20.9998 3.50016 20.9998ZM4.66683 15.6332L16.3335 3.9665L19.3668 6.99984L7.70016 18.6665H4.66683V15.6332ZM24.5002 26.8332C25.2002 26.8332 25.6668 26.3665 25.6668 25.6665C25.6668 24.9665 25.2002 24.4998 24.5002 24.4998H3.50016C2.80016 24.4998 2.3335 24.9665 2.3335 25.6665C2.3335 26.3665 2.80016 26.8332 3.50016 26.8332H24.5002Z" fill="#333333"/>
<mask id="mask0" mask-type="alpha" maskUnits="userSpaceOnUse" x="2" y="1" width="24" height="26">
<path fill-rule="evenodd" clip-rule="evenodd" d="M3.50016 20.9998H8.16683C8.51683 20.9998 8.75016 20.8832 8.9835 20.6498L21.8168 7.8165C22.2835 7.34984 22.2835 6.64984 21.8168 6.18317L17.1502 1.5165C16.6835 1.04984 15.9835 1.04984 15.5168 1.5165L2.6835 14.3498C2.45016 14.5832 2.3335 14.8165 2.3335 15.1665V19.8332C2.3335 20.5332 2.80016 20.9998 3.50016 20.9998ZM4.66683 15.6332L16.3335 3.9665L19.3668 6.99984L7.70016 18.6665H4.66683V15.6332ZM24.5002 26.8332C25.2002 26.8332 25.6668 26.3665 25.6668 25.6665C25.6668 24.9665 25.2002 24.4998 24.5002 24.4998H3.50016C2.80016 24.4998 2.3335 24.9665 2.3335 25.6665C2.3335 26.3665 2.80016 26.8332 3.50016 26.8332H24.5002Z" fill="white"/>
</mask>
<g mask="url(#mask0)">
<path fill-rule="evenodd" clip-rule="evenodd" d="M0 0H28V28H0V0Z" fill="#333333"/>
</g>
</svg>
