<svg width="28" height="28" viewBox="0 0 28 28" fill="none" xmlns="http://www.w3.org/2000/svg">
<path fill-rule="evenodd" clip-rule="evenodd" d="M24.2667 8.69151C24.2958 8.74984 24.325 8.80817 24.3833 8.8665C24.5 8.98317 24.5 9.2165 24.5 9.33317V23.3332C24.5 25.3165 22.9833 26.8332 21 26.8332H7C5.01667 26.8332 3.5 25.3165 3.5 23.3332V4.6665C3.5 2.68317 5.01667 1.1665 7 1.1665H16.3333C16.45 1.1665 16.6833 1.1665 16.8 1.28317C16.9167 1.28317 17.0333 1.39984 17.15 1.5165L24.15 8.5165C24.2083 8.57484 24.2375 8.63317 24.2667 8.69151ZM20.5333 8.1665L17.5 5.13317V8.1665H20.5333ZM21 24.4998H7C6.3 24.4998 5.83333 24.0332 5.83333 23.3332V4.6665C5.83333 3.9665 6.3 3.49984 7 3.49984H15.1667V9.33317C15.1667 10.0332 15.6333 10.4998 16.3333 10.4998H22.1667V23.3332C22.1667 24.0332 21.7 24.4998 21 24.4998ZM17.5 18.6665C18.2 18.6665 18.6667 18.1998 18.6667 17.4998C18.6667 16.7998 18.2 16.3332 17.5 16.3332H15.1667V13.9998C15.1667 13.2998 14.7 12.8332 14 12.8332C13.3 12.8332 12.8333 13.2998 12.8333 13.9998V16.3332H10.5C9.8 16.3332 9.33333 16.7998 9.33333 17.4998C9.33333 18.1998 9.8 18.6665 10.5 18.6665H12.8333V20.9998C12.8333 21.6998 13.3 22.1665 14 22.1665C14.7 22.1665 15.1667 21.6998 15.1667 20.9998V18.6665H17.5Z" fill="#333333"/>
<mask id="mask0" mask-type="alpha" maskUnits="userSpaceOnUse" x="3" y="1" width="22" height="26">
<path fill-rule="evenodd" clip-rule="evenodd" d="M24.2667 8.69151C24.2958 8.74984 24.325 8.80817 24.3833 8.8665C24.5 8.98317 24.5 9.2165 24.5 9.33317V23.3332C24.5 25.3165 22.9833 26.8332 21 26.8332H7C5.01667 26.8332 3.5 25.3165 3.5 23.3332V4.6665C3.5 2.68317 5.01667 1.1665 7 1.1665H16.3333C16.45 1.1665 16.6833 1.1665 16.8 1.28317C16.9167 1.28317 17.0333 1.39984 17.15 1.5165L24.15 8.5165C24.2083 8.57484 24.2375 8.63317 24.2667 8.69151ZM20.5333 8.1665L17.5 5.13317V8.1665H20.5333ZM21 24.4998H7C6.3 24.4998 5.83333 24.0332 5.83333 23.3332V4.6665C5.83333 3.9665 6.3 3.49984 7 3.49984H15.1667V9.33317C15.1667 10.0332 15.6333 10.4998 16.3333 10.4998H22.1667V23.3332C22.1667 24.0332 21.7 24.4998 21 24.4998ZM17.5 18.6665C18.2 18.6665 18.6667 18.1998 18.6667 17.4998C18.6667 16.7998 18.2 16.3332 17.5 16.3332H15.1667V13.9998C15.1667 13.2998 14.7 12.8332 14 12.8332C13.3 12.8332 12.8333 13.2998 12.8333 13.9998V16.3332H10.5C9.8 16.3332 9.33333 16.7998 9.33333 17.4998C9.33333 18.1998 9.8 18.6665 10.5 18.6665H12.8333V20.9998C12.8333 21.6998 13.3 22.1665 14 22.1665C14.7 22.1665 15.1667 21.6998 15.1667 20.9998V18.6665H17.5Z" fill="white"/>
</mask>
<g mask="url(#mask0)">
<path fill-rule="evenodd" clip-rule="evenodd" d="M0 0H28V28H0V0Z" fill="#333333"/>
</g>
</svg>
