<svg width="28" height="28" viewBox="0 0 28 28" fill="none" xmlns="http://www.w3.org/2000/svg">
<path fill-rule="evenodd" clip-rule="evenodd" d="M23.3332 5.8335H13.4165L11.4332 2.80016C11.1998 2.56683 10.8498 2.3335 10.4998 2.3335H4.6665C2.68317 2.3335 1.1665 3.85016 1.1665 5.8335V22.1668C1.1665 24.1502 2.68317 25.6668 4.6665 25.6668H23.3332C25.3165 25.6668 26.8332 24.1502 26.8332 22.1668V9.3335C26.8332 7.35016 25.3165 5.8335 23.3332 5.8335ZM24.4998 22.1668C24.4998 22.8668 24.0332 23.3335 23.3332 23.3335H4.6665C3.9665 23.3335 3.49984 22.8668 3.49984 22.1668V5.8335C3.49984 5.1335 3.9665 4.66683 4.6665 4.66683H9.9165L11.8998 7.70016C12.1332 7.9335 12.4832 8.16683 12.8332 8.16683H23.3332C24.0332 8.16683 24.4998 8.6335 24.4998 9.3335V22.1668ZM17.4998 17.5002C18.1998 17.5002 18.6665 17.0335 18.6665 16.3335C18.6665 15.6335 18.1998 15.1668 17.4998 15.1668H15.1665V12.8335C15.1665 12.1335 14.6998 11.6668 13.9998 11.6668C13.2998 11.6668 12.8332 12.1335 12.8332 12.8335V15.1668H10.4998C9.79984 15.1668 9.33317 15.6335 9.33317 16.3335C9.33317 17.0335 9.79984 17.5002 10.4998 17.5002H12.8332V19.8335C12.8332 20.5335 13.2998 21.0002 13.9998 21.0002C14.6998 21.0002 15.1665 20.5335 15.1665 19.8335V17.5002H17.4998Z" fill="#333333"/>
<mask id="mask0" mask-type="alpha" maskUnits="userSpaceOnUse" x="1" y="2" width="26" height="24">
<path fill-rule="evenodd" clip-rule="evenodd" d="M23.3332 5.8335H13.4165L11.4332 2.80016C11.1998 2.56683 10.8498 2.3335 10.4998 2.3335H4.6665C2.68317 2.3335 1.1665 3.85016 1.1665 5.8335V22.1668C1.1665 24.1502 2.68317 25.6668 4.6665 25.6668H23.3332C25.3165 25.6668 26.8332 24.1502 26.8332 22.1668V9.3335C26.8332 7.35016 25.3165 5.8335 23.3332 5.8335ZM24.4998 22.1668C24.4998 22.8668 24.0332 23.3335 23.3332 23.3335H4.6665C3.9665 23.3335 3.49984 22.8668 3.49984 22.1668V5.8335C3.49984 5.1335 3.9665 4.66683 4.6665 4.66683H9.9165L11.8998 7.70016C12.1332 7.9335 12.4832 8.16683 12.8332 8.16683H23.3332C24.0332 8.16683 24.4998 8.6335 24.4998 9.3335V22.1668ZM17.4998 17.5002C18.1998 17.5002 18.6665 17.0335 18.6665 16.3335C18.6665 15.6335 18.1998 15.1668 17.4998 15.1668H15.1665V12.8335C15.1665 12.1335 14.6998 11.6668 13.9998 11.6668C13.2998 11.6668 12.8332 12.1335 12.8332 12.8335V15.1668H10.4998C9.79984 15.1668 9.33317 15.6335 9.33317 16.3335C9.33317 17.0335 9.79984 17.5002 10.4998 17.5002H12.8332V19.8335C12.8332 20.5335 13.2998 21.0002 13.9998 21.0002C14.6998 21.0002 15.1665 20.5335 15.1665 19.8335V17.5002H17.4998Z" fill="white"/>
</mask>
<g mask="url(#mask0)">
<path fill-rule="evenodd" clip-rule="evenodd" d="M0 0H28V28H0V0Z" fill="#333333"/>
</g>
</svg>
