<svg width="28" height="28" viewBox="0 0 28 28" fill="none" xmlns="http://www.w3.org/2000/svg">
<path fill-rule="evenodd" clip-rule="evenodd" d="M1.1665 13.9998C1.1665 6.88317 6.88317 1.1665 13.9998 1.1665C21.1165 1.1665 26.8332 6.88317 26.8332 13.9998C26.8332 21.1165 21.1165 26.8332 13.9998 26.8332C6.88317 26.8332 1.1665 21.1165 1.1665 13.9998ZM3.49984 13.9998C3.49984 19.8332 8.1665 24.4998 13.9998 24.4998C19.8332 24.4998 24.4998 19.8332 24.4998 13.9998C24.4998 8.1665 19.8332 3.49984 13.9998 3.49984C8.1665 3.49984 3.49984 8.1665 3.49984 13.9998ZM15.1665 13.9998V18.6665C15.1665 19.3665 14.6998 19.8332 13.9998 19.8332C13.2998 19.8332 12.8332 19.3665 12.8332 18.6665V13.9998C12.8332 13.2998 13.2998 12.8332 13.9998 12.8332C14.6998 12.8332 15.1665 13.2998 15.1665 13.9998ZM15.1665 9.33317C15.1665 8.98317 15.0498 8.74984 14.8165 8.5165C14.5832 8.28317 14.1165 8.1665 13.7665 8.1665C13.6994 8.23359 13.6709 8.2621 13.6366 8.27422C13.6113 8.28317 13.5827 8.28317 13.5332 8.28317C13.4748 8.28317 13.4457 8.31234 13.4165 8.3415C13.3873 8.37067 13.3582 8.39984 13.2998 8.39984L13.1832 8.5165C12.9498 8.74984 12.8332 8.98317 12.8332 9.33317C12.8332 9.68317 12.9498 9.9165 13.1832 10.1498C13.1832 10.1498 13.1832 10.2665 13.2998 10.2665C13.3582 10.2665 13.3873 10.2957 13.4165 10.3248C13.4457 10.354 13.4748 10.3832 13.5332 10.3832C13.6003 10.4503 13.6288 10.4788 13.6631 10.4909C13.6884 10.4998 13.7169 10.4998 13.7665 10.4998H13.9998C14.3498 10.4998 14.5832 10.3832 14.8165 10.1498C15.0498 9.9165 15.1665 9.68317 15.1665 9.33317Z" fill="#333333"/>
<mask id="mask0" mask-type="alpha" maskUnits="userSpaceOnUse" x="1" y="1" width="26" height="26">
<path fill-rule="evenodd" clip-rule="evenodd" d="M1.1665 13.9998C1.1665 6.88317 6.88317 1.1665 13.9998 1.1665C21.1165 1.1665 26.8332 6.88317 26.8332 13.9998C26.8332 21.1165 21.1165 26.8332 13.9998 26.8332C6.88317 26.8332 1.1665 21.1165 1.1665 13.9998ZM3.49984 13.9998C3.49984 19.8332 8.1665 24.4998 13.9998 24.4998C19.8332 24.4998 24.4998 19.8332 24.4998 13.9998C24.4998 8.1665 19.8332 3.49984 13.9998 3.49984C8.1665 3.49984 3.49984 8.1665 3.49984 13.9998ZM15.1665 13.9998V18.6665C15.1665 19.3665 14.6998 19.8332 13.9998 19.8332C13.2998 19.8332 12.8332 19.3665 12.8332 18.6665V13.9998C12.8332 13.2998 13.2998 12.8332 13.9998 12.8332C14.6998 12.8332 15.1665 13.2998 15.1665 13.9998ZM15.1665 9.33317C15.1665 8.98317 15.0498 8.74984 14.8165 8.5165C14.5832 8.28317 14.1165 8.1665 13.7665 8.1665C13.6994 8.23359 13.6709 8.2621 13.6366 8.27422C13.6113 8.28317 13.5827 8.28317 13.5332 8.28317C13.4748 8.28317 13.4457 8.31234 13.4165 8.3415C13.3873 8.37067 13.3582 8.39984 13.2998 8.39984L13.1832 8.5165C12.9498 8.74984 12.8332 8.98317 12.8332 9.33317C12.8332 9.68317 12.9498 9.9165 13.1832 10.1498C13.1832 10.1498 13.1832 10.2665 13.2998 10.2665C13.3582 10.2665 13.3873 10.2957 13.4165 10.3248C13.4457 10.354 13.4748 10.3832 13.5332 10.3832C13.6003 10.4503 13.6288 10.4788 13.6631 10.4909C13.6884 10.4998 13.7169 10.4998 13.7665 10.4998H13.9998C14.3498 10.4998 14.5832 10.3832 14.8165 10.1498C15.0498 9.9165 15.1665 9.68317 15.1665 9.33317Z" fill="white"/>
</mask>
<g mask="url(#mask0)">
<path fill-rule="evenodd" clip-rule="evenodd" d="M0 0H28V28H0V0Z" fill="#333333"/>
</g>
</svg>
