<svg width="28" height="28" viewBox="0 0 28 28" fill="none" xmlns="http://www.w3.org/2000/svg">
<path fill-rule="evenodd" clip-rule="evenodd" d="M22.1668 11.6665H21.0002V8.1665C21.0002 4.3165 17.8502 1.1665 14.0002 1.1665C10.1502 1.1665 7.00016 4.3165 7.00016 8.1665V11.6665H5.8335C3.85016 11.6665 2.3335 13.1832 2.3335 15.1665V23.3332C2.3335 25.3165 3.85016 26.8332 5.8335 26.8332H22.1668C24.1502 26.8332 25.6668 25.3165 25.6668 23.3332V15.1665C25.6668 13.1832 24.1502 11.6665 22.1668 11.6665ZM9.3335 8.1665C9.3335 5.59984 11.4335 3.49984 14.0002 3.49984C16.5668 3.49984 18.6668 5.59984 18.6668 8.1665V11.6665H9.3335V8.1665ZM22.1668 24.4998C22.8668 24.4998 23.3335 24.0332 23.3335 23.3332V15.1665C23.3335 14.4665 22.8668 13.9998 22.1668 13.9998H5.8335C5.1335 13.9998 4.66683 14.4665 4.66683 15.1665V23.3332C4.66683 24.0332 5.1335 24.4998 5.8335 24.4998H22.1668Z" fill="#333333"/>
<mask id="mask0" mask-type="alpha" maskUnits="userSpaceOnUse" x="2" y="1" width="24" height="26">
<path fill-rule="evenodd" clip-rule="evenodd" d="M22.1668 11.6665H21.0002V8.1665C21.0002 4.3165 17.8502 1.1665 14.0002 1.1665C10.1502 1.1665 7.00016 4.3165 7.00016 8.1665V11.6665H5.8335C3.85016 11.6665 2.3335 13.1832 2.3335 15.1665V23.3332C2.3335 25.3165 3.85016 26.8332 5.8335 26.8332H22.1668C24.1502 26.8332 25.6668 25.3165 25.6668 23.3332V15.1665C25.6668 13.1832 24.1502 11.6665 22.1668 11.6665ZM9.3335 8.1665C9.3335 5.59984 11.4335 3.49984 14.0002 3.49984C16.5668 3.49984 18.6668 5.59984 18.6668 8.1665V11.6665H9.3335V8.1665ZM22.1668 24.4998C22.8668 24.4998 23.3335 24.0332 23.3335 23.3332V15.1665C23.3335 14.4665 22.8668 13.9998 22.1668 13.9998H5.8335C5.1335 13.9998 4.66683 14.4665 4.66683 15.1665V23.3332C4.66683 24.0332 5.1335 24.4998 5.8335 24.4998H22.1668Z" fill="white"/>
</mask>
<g mask="url(#mask0)">
<path fill-rule="evenodd" clip-rule="evenodd" d="M0 0H28V28H0V0Z" fill="#333333"/>
</g>
</svg>
