<svg width="28" height="28" viewBox="0 0 28 28" fill="none" xmlns="http://www.w3.org/2000/svg">
<path fill-rule="evenodd" clip-rule="evenodd" d="M11.6785 26.8332C12.3794 26.8332 12.8466 26.3665 12.8466 25.6665C12.8466 24.9665 12.3794 24.4998 11.6785 24.4998H5.83788C5.137 24.4998 4.66975 24.0332 4.66975 23.3332V4.6665C4.66975 3.9665 5.137 3.49984 5.83788 3.49984H11.6785C12.3794 3.49984 12.8466 3.03317 12.8466 2.33317C12.8466 1.63317 12.3794 1.1665 11.6785 1.1665H5.83788C3.85206 1.1665 2.3335 2.68317 2.3335 4.6665V23.3332C2.3335 25.3165 3.85206 26.8332 5.83788 26.8332H11.6785ZM25.5792 13.5332C25.696 13.8832 25.696 14.2332 25.5792 14.4665C25.5792 14.5832 25.4624 14.6998 25.3456 14.8165L20.6731 19.4832C20.4395 19.7165 20.089 19.8332 19.8554 19.8332C19.6218 19.8332 19.2713 19.7165 19.0377 19.4832C18.5705 19.0165 18.5705 18.3165 19.0377 17.8498L21.7244 15.1665H10.5104C9.80951 15.1665 9.34226 14.6998 9.34226 13.9998C9.34226 13.2998 9.80951 12.8332 10.5104 12.8332H21.7244L19.0377 10.1498C18.5705 9.68317 18.5705 8.98317 19.0377 8.5165C19.505 8.04984 20.2058 8.04984 20.6731 8.5165L25.3456 13.1832C25.404 13.2415 25.4332 13.2998 25.4624 13.3582C25.4916 13.4165 25.5208 13.4748 25.5792 13.5332Z" fill="black"/>
<mask id="mask0" mask-type="alpha" maskUnits="userSpaceOnUse" x="2" y="1" width="24" height="26">
<path fill-rule="evenodd" clip-rule="evenodd" d="M11.6785 26.8332C12.3794 26.8332 12.8466 26.3665 12.8466 25.6665C12.8466 24.9665 12.3794 24.4998 11.6785 24.4998H5.83788C5.137 24.4998 4.66975 24.0332 4.66975 23.3332V4.6665C4.66975 3.9665 5.137 3.49984 5.83788 3.49984H11.6785C12.3794 3.49984 12.8466 3.03317 12.8466 2.33317C12.8466 1.63317 12.3794 1.1665 11.6785 1.1665H5.83788C3.85206 1.1665 2.3335 2.68317 2.3335 4.6665V23.3332C2.3335 25.3165 3.85206 26.8332 5.83788 26.8332H11.6785ZM25.5792 13.5332C25.696 13.8832 25.696 14.2332 25.5792 14.4665C25.5792 14.5832 25.4624 14.6998 25.3456 14.8165L20.6731 19.4832C20.4395 19.7165 20.089 19.8332 19.8554 19.8332C19.6218 19.8332 19.2713 19.7165 19.0377 19.4832C18.5705 19.0165 18.5705 18.3165 19.0377 17.8498L21.7244 15.1665H10.5104C9.80951 15.1665 9.34226 14.6998 9.34226 13.9998C9.34226 13.2998 9.80951 12.8332 10.5104 12.8332H21.7244L19.0377 10.1498C18.5705 9.68317 18.5705 8.98317 19.0377 8.5165C19.505 8.04984 20.2058 8.04984 20.6731 8.5165L25.3456 13.1832C25.404 13.2415 25.4332 13.2998 25.4624 13.3582C25.4916 13.4165 25.5208 13.4748 25.5792 13.5332Z" fill="white"/>
</mask>
<g mask="url(#mask0)">
<path fill-rule="evenodd" clip-rule="evenodd" d="M0 0H28V28H0V0Z" fill="black"/>
</g>
</svg>
