<svg width="25" height="24" viewBox="0 0 25 24" fill="none" xmlns="http://www.w3.org/2000/svg">
<path d="M20.901 12C20.901 12.6 20.499 13 19.8961 13H13.8664V19C13.8664 19.6 13.4644 20 12.8614 20C12.2584 20 11.8565 19.6 11.8565 19V13H5.82676C5.22379 13 4.82181 12.6 4.82181 12C4.82181 11.4 5.22379 11 5.82676 11H11.8565V5C11.8565 4.4 12.2584 4 12.8614 4C13.4644 4 13.8664 4.4 13.8664 5V11H19.8961C20.499 11 20.901 11.4 20.901 12Z" fill="white"/>
<mask id="mask0" mask-type="alpha" maskUnits="userSpaceOnUse" x="4" y="4" width="17" height="16">
<path d="M20.901 12C20.901 12.6 20.499 13 19.8961 13H13.8664V19C13.8664 19.6 13.4644 20 12.8614 20C12.2584 20 11.8565 19.6 11.8565 19V13H5.82676C5.22379 13 4.82181 12.6 4.82181 12C4.82181 11.4 5.22379 11 5.82676 11H11.8565V5C11.8565 4.4 12.2584 4 12.8614 4C13.4644 4 13.8664 4.4 13.8664 5V11H19.8961C20.499 11 20.901 11.4 20.901 12Z" fill="white"/>
</mask>
<g mask="url(#mask0)">
<path fill-rule="evenodd" clip-rule="evenodd" d="M0.802002 0H24.9208V24H0.802002V0Z" fill="white"/>
</g>
</svg>
