<svg width="20" height="21" viewBox="0 0 20 21" fill="none" xmlns="http://www.w3.org/2000/svg">
<path fill-rule="evenodd" clip-rule="evenodd" d="M10 1.33334C4.91671 1.33334 0.833374 5.41668 0.833374 10.5C0.833374 15.5833 4.91671 19.6667 10 19.6667C15.0834 19.6667 19.1667 15.5833 19.1667 10.5C19.1667 5.41668 15.0834 1.33334 10 1.33334ZM10 18C5.83337 18 2.50004 14.6667 2.50004 10.5C2.50004 6.33334 5.83337 3.00001 10 3.00001C14.1667 3.00001 17.5 6.33334 17.5 10.5C17.5 14.6667 14.1667 18 10 18ZM13.3334 11.3333C13.8334 11.3333 14.1667 11 14.1667 10.5C14.1667 10 13.8334 9.66668 13.3334 9.66668H10.8334V7.16668C10.8334 6.66668 10.5 6.33334 10 6.33334C9.50004 6.33334 9.16671 6.66668 9.16671 7.16668V9.66668H6.66671C6.16671 9.66668 5.83337 10 5.83337 10.5C5.83337 11 6.16671 11.3333 6.66671 11.3333H9.16671V13.8333C9.16671 14.3333 9.50004 14.6667 10 14.6667C10.5 14.6667 10.8334 14.3333 10.8334 13.8333V11.3333H13.3334Z" fill="#36A510"/>
<mask id="mask0" mask-type="alpha" maskUnits="userSpaceOnUse" x="0" y="1" width="20" height="19">
<path fill-rule="evenodd" clip-rule="evenodd" d="M10 1.33334C4.91671 1.33334 0.833374 5.41668 0.833374 10.5C0.833374 15.5833 4.91671 19.6667 10 19.6667C15.0834 19.6667 19.1667 15.5833 19.1667 10.5C19.1667 5.41668 15.0834 1.33334 10 1.33334ZM10 18C5.83337 18 2.50004 14.6667 2.50004 10.5C2.50004 6.33334 5.83337 3.00001 10 3.00001C14.1667 3.00001 17.5 6.33334 17.5 10.5C17.5 14.6667 14.1667 18 10 18ZM13.3334 11.3333C13.8334 11.3333 14.1667 11 14.1667 10.5C14.1667 10 13.8334 9.66668 13.3334 9.66668H10.8334V7.16668C10.8334 6.66668 10.5 6.33334 10 6.33334C9.50004 6.33334 9.16671 6.66668 9.16671 7.16668V9.66668H6.66671C6.16671 9.66668 5.83337 10 5.83337 10.5C5.83337 11 6.16671 11.3333 6.66671 11.3333H9.16671V13.8333C9.16671 14.3333 9.50004 14.6667 10 14.6667C10.5 14.6667 10.8334 14.3333 10.8334 13.8333V11.3333H13.3334Z" fill="white"/>
</mask>
<g mask="url(#mask0)">
<path fill-rule="evenodd" clip-rule="evenodd" d="M0 0.5H20V20.5H0V0.5Z" fill="#36A510"/>
</g>
</svg>
