<svg width="40" height="40" viewBox="0 0 40 40" fill="none" xmlns="http://www.w3.org/2000/svg">
<g clip-path="url(#clip0)">
<circle cx="20" cy="20" r="20" fill="#5C94FF"/>
<path d="M13.284 1.60063C13.1836 1.60063 13.0736 1.64241 12.9615 1.70562C13.2253 1.62741 13.3492 1.60063 13.284 1.60063ZM19.8169 2.87771L19.8821 1.91883L18.8739 1.98204L19.0074 2.87663H19.8169V2.87771ZM8.43534 19.4454C8.23242 19.2536 8.36805 18.4212 8.36805 18.4212C8.36805 18.4212 5.33709 16.8238 2.03807 15.8627C1.63117 15.7449 1.83729 14.9039 2.23885 14.5857L2.10535 13.6879C2.03807 13.2411 2.77926 11.0662 3.52044 10.8755C4.26163 10.6827 3.45316 12.1536 3.45316 12.1536L2.71304 12.6015C2.71304 12.6015 3.58773 13.6246 3.79064 13.6246C3.99143 13.6246 4.32891 13.1115 4.32891 13.1115L3.38694 12.474L4.26163 12.0894L4.31716 11.753L4.46455 11.7058L5.91381 9.50307C6.91559 9.09167 8.14698 8.58276 8.30291 8.50777C8.57311 8.38027 10.4581 7.2939 10.7945 7.03892C11.132 6.78179 11.8711 6.84714 12.1402 6.84714C12.4104 6.84714 12.8141 6.71858 12.8814 6.01361C12.9487 5.31079 13.2178 5.18223 13.4207 5.37508C13.6226 5.56471 13.2178 5.88612 13.6899 6.01361C14.1608 6.14218 14.5645 6.46145 14.902 6.14218C15.1477 5.90862 14.8187 5.64185 14.5966 5.44043H18.3356L18.7404 4.28656L17.8646 4.15907L14.6329 3.83873V3.45518L14.3744 3.4991C14.7247 1.56956 16.803 1.88776 15.2384 0.770317C15.1434 0.701749 13.7742 2.93556 13.425 2.89163C12.7938 2.80807 11.9789 2.80164 11.8048 3.00734C11.5742 3.27947 12.3207 2.07203 12.9636 1.70562C12.1968 1.93168 10.8234 1.23208 8.34669 2.98699C7.50939 3.58053 5.40758 5.98683 4.54144 6.91142C0.886777 11.2398 0.592011 14.9424 0.592011 15.1064C0.592011 15.4256 1.3663 15.6067 1.43252 15.9913C1.4998 16.3727 0.153067 17.6541 0.153067 18.2926C0.153067 18.5862 -0.520836 21.7799 0.959399 25.7751C2.27303 29.5656 4.81485 32.9083 5.14165 33.1183L6.07721 32.6201C6.07721 32.6201 4.52863 29.8699 4.46134 29.6127C4.39406 29.3577 6.21178 25.6476 7.0886 25.7772C7.96328 25.9015 7.76143 26.1597 8.30077 25.8404C8.84011 25.5222 9.17652 22.8974 9.78207 22.6435C10.3887 22.3863 11.0615 22.0671 10.9942 21.4274C10.9259 20.7868 8.63719 19.6372 8.43534 19.4454ZM23.0487 0.640681L21.2309 0L21.5674 1.02423L23.0487 0.640681ZM16.2466 3.00734C16.4495 3.00734 20.4887 0.322483 20.085 0.25713C19.6823 0.193919 19.6151 0.257129 18.5353 0.128565C17.4599 0.00107125 16.3128 1.66384 16.0448 1.92097C15.7756 2.17703 15.8664 3.00734 16.2466 3.00734ZM34.788 22.2931L35.3092 21.6139L34.788 21.4296L34.3971 21.9224L33.9411 22.6006L34.3309 22.7849L34.788 22.2931ZM37.0682 24.513L36.9379 23.5252H36.092L36.0258 24.2644L35.243 24.1423L35.0486 23.3409L34.6577 23.0945L34.2006 23.6495L33.7446 23.5273L33.6132 23.957L34.1355 24.0823V28.0871L35.9799 28.5328C35.9372 28.6056 35.9062 28.6689 35.8955 28.7021C35.7642 29.1338 36.4156 29.3213 36.8717 29.1338C37.0404 29.0663 38.1031 28.656 38.4405 27.8514C38.9094 26.7307 39.2138 25.1173 39.2949 24.5955L39.0888 24.1423L37.7848 24.6362L37.066 24.513H37.0682ZM36.4156 8.10922C33.4338 3.5741 26.2697 0.609611 26.2697 0.609611L24.4242 1.5792L24.1626 1.14958L23.5122 0.902096V1.45814L24.0985 1.95204L23.7087 2.13632L22.2092 2.25845L18.8205 4.10871L19.1462 5.58828L18.7543 5.71256L18.5599 6.02004L19.6685 7.68281L19.7336 8.23885L18.8215 8.42313V9.532L18.3004 9.65521L18.3655 10.5187L13.9323 13.6021L14.0626 15.326C14.3883 15.7577 16.9312 18.3473 16.9312 18.3473C16.9312 18.3473 19.8639 18.4694 20.5154 18.1008C21.1679 17.7312 20.7108 18.4705 20.9073 18.6558C21.1017 18.8412 21.1679 20.1354 21.3623 20.2586C21.5588 20.3818 21.3623 21.12 21.6229 21.3696C21.8835 21.6149 21.8835 24.5741 21.8835 24.5741C21.8835 24.5741 23.4481 27.2246 23.4481 27.9018C23.4481 28.5789 23.3819 28.5178 24.6218 28.4567C25.8596 28.3957 26.1202 27.9018 26.3808 27.7185C26.6414 27.5353 26.6414 27.1025 26.902 26.7307C27.1647 26.36 27.6197 24.9448 28.2071 24.4519C28.7923 23.957 30.358 23.5863 30.4872 22.726C30.6175 21.8614 31.2038 21.1842 31.2038 21.1842L34.0223 18.194L33.9432 18.5958L33.8781 20.1364L34.7261 19.829L34.6609 18.163L34.3576 17.8405L34.4003 17.7934C34.4003 17.7934 34.2038 17.4237 33.9443 17.4237C33.6837 17.4237 32.118 17.7934 31.8585 17.7323C31.5979 17.6701 30.4894 14.711 30.2939 14.5889C30.0974 14.4657 28.8607 12.4301 28.8607 12.4301C28.8607 12.4301 31.7271 15.882 32.1832 17.2384C32.448 18.028 33.4434 17.293 34.2529 16.4691L34.4665 16.993L34.9867 16.8688L34.9215 16.2527H35.5078V17.1773L35.3124 17.6712L35.2451 18.4715L35.7674 18.9654L36.028 18.5347L36.8727 17.7323L37.851 17.2395L38.1127 17.7323L38.243 18.4105L37.9824 19.1497L37.4612 19.5815L37.2006 20.6914V21.2464L36.6143 20.8757L36.5491 19.7058L35.7022 19.769L35.3124 20.8157L35.8987 21.6803L37.2668 21.8656L38.3743 20.8168L38.5046 18.7854L38.998 18.1319C39.3195 18.9601 39.5491 19.8268 39.5491 20.6336C39.5491 21.5185 40.2476 20.1868 39.9058 17.4869C39.9048 17.4837 39.3686 11.0726 36.4156 8.10922ZM23.3797 10.7652L19.8607 10.6398L21.358 9.40772H22.1398L23.3787 10.2702V10.7652H23.3797ZM27.6837 10.3334V10.8884H26.1853L26.3156 11.2591L25.4025 11.3833L25.3384 11.6897L24.687 11.5687L23.5122 11.3212L23.7087 11.0137L23.9052 10.6419L24.5567 9.96376L24.8183 10.4577L25.7945 10.3955L26.3156 9.83948L28.3373 10.2102L27.6837 10.3334ZM27.813 9.532L27.0312 9.65521L26.902 9.09917L27.8781 8.97703L28.0095 8.42206L28.7272 9.16238L27.813 9.532ZM31.5947 28.7021L31.1376 29.0728L31.2028 29.9974H31.7891V29.1981L32.3124 28.5178V27.1014L31.9845 27.0372L31.5947 28.7021ZM27.2277 26.8539C27.2277 26.8539 26.7706 26.9729 27.2918 27.1614C27.813 27.3479 29.8988 24.1423 29.8988 24.1423L28.1387 25.2512L27.2277 26.8539ZM23.6798 38.669L23.29 38.2962L22.5083 38.1719L22.379 38.5458L21.3356 38.4226L21.2694 37.9266H20.4876L19.6407 38.4226H18.1434L18.0131 38.0498L15.6026 37.8002L15.2117 38.1741L14.2356 37.9277L14.1042 37.0566L13.6482 36.9923L13.127 37.9266L11.368 37.8634C11.6831 38.0123 14.3082 39.584 18.3367 39.9118C23.6788 40.3447 26.2195 39.043 26.2195 39.043L26.0241 38.8544L23.6798 38.669Z" fill="#36C510"/>
</g>
<defs>
<clipPath id="clip0">
<path d="M0 20C0 8.95431 8.9543 0 20 0C31.0457 0 40 8.95431 40 20C40 31.0457 31.0457 40 20 40C8.9543 40 0 31.0457 0 20Z" fill="white"/>
</clipPath>
</defs>
</svg>
