<svg width="971" height="219" viewBox="0 0 971 219" fill="none" xmlns="http://www.w3.org/2000/svg">
<path d="M0.808 0.727998V3.512H12.712V35H15.976V3.512H27.928V0.727998H0.808ZM81.6239 0.727998V35H84.6479V20.552C84.6799 19.336 84.8719 18.216 85.2239 17.192C85.6079 16.136 86.1199 15.24 86.7599 14.504C87.4319 13.736 88.2319 13.144 89.1599 12.728C90.1199 12.28 91.2079 12.056 92.4239 12.056C93.6399 12.056 94.6479 12.248 95.4479 12.632C96.2799 13.016 96.9359 13.544 97.4159 14.216C97.8959 14.888 98.2319 15.688 98.4239 16.616C98.6159 17.512 98.7119 18.488 98.7119 19.544V35H101.736V19.064C101.736 17.592 101.592 16.264 101.304 15.08C101.016 13.896 100.52 12.904 99.8159 12.104C99.1119 11.272 98.1679 10.632 96.9839 10.184C95.8319 9.736 94.3919 9.512 92.6639 9.512C90.9039 9.512 89.2879 9.976 87.8159 10.904C86.3439 11.8 85.3199 13 84.7439 14.504H84.6479V0.727998H81.6239ZM176.381 20.888H160.349C160.477 19.768 160.733 18.68 161.117 17.624C161.533 16.536 162.077 15.592 162.749 14.792C163.421 13.96 164.237 13.304 165.197 12.824C166.157 12.312 167.261 12.056 168.509 12.056C169.725 12.056 170.813 12.312 171.773 12.824C172.733 13.304 173.549 13.96 174.221 14.792C174.893 15.592 175.405 16.52 175.757 17.576C176.141 18.632 176.349 19.736 176.381 20.888ZM160.349 23.432H179.405C179.469 21.704 179.309 20.008 178.925 18.344C178.541 16.648 177.901 15.16 177.005 13.88C176.141 12.568 175.005 11.512 173.597 10.712C172.189 9.912 170.493 9.512 168.509 9.512C166.557 9.512 164.861 9.896 163.421 10.664C162.013 11.4 160.861 12.392 159.965 13.64C159.069 14.856 158.397 16.248 157.949 17.816C157.533 19.384 157.325 20.984 157.325 22.616C157.325 24.376 157.533 26.056 157.949 27.656C158.397 29.224 159.069 30.616 159.965 31.832C160.861 33.016 162.013 33.96 163.421 34.664C164.861 35.336 166.557 35.672 168.509 35.672C171.645 35.672 174.061 34.904 175.757 33.368C177.485 31.832 178.669 29.656 179.309 26.84H176.285C175.805 28.76 174.941 30.296 173.693 31.448C172.445 32.6 170.717 33.176 168.509 33.176C167.069 33.176 165.837 32.872 164.813 32.264C163.789 31.656 162.941 30.888 162.269 29.96C161.597 29.032 161.101 27.992 160.781 26.84C160.493 25.656 160.349 24.52 160.349 23.432ZM296.567 10.232L304.535 35H307.847L313.895 14.168H313.991L320.087 35H323.399L331.367 10.232H328.151L321.815 31.448H321.719L315.671 10.232H312.263L306.215 31.448H306.119L299.783 10.232H296.567ZM396.225 12.056C397.665 12.056 398.929 12.36 400.017 12.968C401.105 13.576 402.001 14.376 402.705 15.368C403.441 16.36 403.985 17.496 404.337 18.776C404.721 20.024 404.913 21.304 404.913 22.616C404.913 23.928 404.721 25.224 404.337 26.504C403.985 27.752 403.441 28.872 402.705 29.864C402.001 30.856 401.105 31.656 400.017 32.264C398.929 32.872 397.665 33.176 396.225 33.176C394.785 33.176 393.521 32.872 392.433 32.264C391.345 31.656 390.433 30.856 389.697 29.864C388.993 28.872 388.449 27.752 388.065 26.504C387.713 25.224 387.537 23.928 387.537 22.616C387.537 21.304 387.713 20.024 388.065 18.776C388.449 17.496 388.993 16.36 389.697 15.368C390.433 14.376 391.345 13.576 392.433 12.968C393.521 12.36 394.785 12.056 396.225 12.056ZM396.225 9.512C394.337 9.512 392.657 9.864 391.185 10.568C389.745 11.272 388.529 12.216 387.537 13.4C386.545 14.584 385.793 15.976 385.281 17.576C384.769 19.144 384.513 20.824 384.513 22.616C384.513 24.408 384.769 26.104 385.281 27.704C385.793 29.272 386.545 30.648 387.537 31.832C388.529 33.016 389.745 33.96 391.185 34.664C392.657 35.336 394.337 35.672 396.225 35.672C398.113 35.672 399.777 35.336 401.217 34.664C402.689 33.96 403.921 33.016 404.913 31.832C405.905 30.648 406.657 29.272 407.169 27.704C407.681 26.104 407.937 24.408 407.937 22.616C407.937 20.824 407.681 19.144 407.169 17.576C406.657 15.976 405.905 14.584 404.913 13.4C403.921 12.216 402.689 11.272 401.217 10.568C399.777 9.864 398.113 9.512 396.225 9.512ZM463.553 10.232V35H466.577V21.8C466.577 20.488 466.801 19.288 467.249 18.2C467.697 17.08 468.321 16.12 469.121 15.32C469.953 14.52 470.929 13.912 472.049 13.496C473.169 13.048 474.417 12.856 475.793 12.92V9.896C473.553 9.8 471.617 10.296 469.985 11.384C468.385 12.472 467.201 14.024 466.433 16.04H466.337V10.232H463.553ZM529.862 0.727998V35H532.886V0.727998H529.862ZM611.585 35V0.727998H608.561V14.936H608.465C608.145 14.04 607.681 13.256 607.073 12.584C606.497 11.912 605.825 11.352 605.057 10.904C604.289 10.424 603.457 10.072 602.561 9.848C601.697 9.624 600.801 9.512 599.873 9.512C597.985 9.512 596.337 9.864 594.929 10.568C593.553 11.272 592.401 12.232 591.473 13.448C590.545 14.632 589.857 16.024 589.409 17.624C588.961 19.192 588.737 20.856 588.737 22.616C588.737 24.376 588.961 26.056 589.409 27.656C589.857 29.224 590.545 30.616 591.473 31.832C592.401 33.016 593.553 33.96 594.929 34.664C596.337 35.336 597.985 35.672 599.873 35.672C600.769 35.672 601.665 35.544 602.561 35.288C603.489 35.032 604.353 34.68 605.153 34.232C605.953 33.752 606.657 33.176 607.265 32.504C607.905 31.832 608.385 31.096 608.705 30.296H608.801V35H611.585ZM591.761 22.616C591.761 21.336 591.905 20.072 592.193 18.824C592.513 17.544 592.993 16.408 593.633 15.416C594.305 14.424 595.153 13.624 596.177 13.016C597.201 12.376 598.433 12.056 599.873 12.056C601.473 12.056 602.817 12.376 603.905 13.016C605.025 13.624 605.921 14.424 606.593 15.416C607.297 16.408 607.793 17.544 608.081 18.824C608.401 20.072 608.561 21.336 608.561 22.616C608.561 23.896 608.401 25.176 608.081 26.456C607.793 27.704 607.297 28.824 606.593 29.816C605.921 30.808 605.025 31.624 603.905 32.264C602.817 32.872 601.473 33.176 599.873 33.176C598.433 33.176 597.201 32.872 596.177 32.264C595.153 31.624 594.305 30.808 593.633 29.816C592.993 28.824 592.513 27.704 592.193 26.456C591.905 25.176 591.761 23.896 591.761 22.616ZM683.308 17.48H686.332C686.268 16.136 685.996 14.968 685.516 13.976C685.036 12.984 684.38 12.152 683.548 11.48C682.748 10.808 681.804 10.312 680.716 9.992C679.66 9.672 678.508 9.512 677.26 9.512C676.172 9.512 675.068 9.64 673.948 9.896C672.86 10.152 671.868 10.552 670.972 11.096C670.076 11.64 669.34 12.36 668.764 13.256C668.22 14.152 667.948 15.224 667.948 16.472C667.948 17.528 668.124 18.424 668.476 19.16C668.828 19.864 669.308 20.472 669.916 20.984C670.556 21.464 671.292 21.88 672.124 22.232C672.956 22.552 673.868 22.84 674.86 23.096L678.748 23.96C679.42 24.12 680.076 24.312 680.716 24.536C681.388 24.76 681.98 25.048 682.492 25.4C683.004 25.72 683.404 26.136 683.692 26.648C684.012 27.128 684.172 27.736 684.172 28.472C684.172 29.336 683.948 30.072 683.5 30.68C683.084 31.256 682.54 31.736 681.868 32.12C681.196 32.504 680.46 32.776 679.66 32.936C678.892 33.096 678.14 33.176 677.404 33.176C675.388 33.176 673.692 32.664 672.316 31.64C670.972 30.584 670.236 29.032 670.108 26.984H667.084C667.34 30.024 668.364 32.232 670.156 33.608C671.98 34.984 674.348 35.672 677.26 35.672C678.412 35.672 679.58 35.544 680.764 35.288C681.948 35.032 683.004 34.616 683.932 34.04C684.892 33.432 685.676 32.664 686.284 31.736C686.892 30.776 687.196 29.624 687.196 28.28C687.196 27.192 686.988 26.248 686.572 25.448C686.156 24.648 685.612 23.976 684.94 23.432C684.3 22.888 683.548 22.456 682.684 22.136C681.852 21.784 681.004 21.544 680.14 21.416L676.108 20.504C675.596 20.376 675.036 20.216 674.428 20.024C673.82 19.8 673.26 19.528 672.748 19.208C672.236 18.888 671.804 18.504 671.452 18.056C671.132 17.576 670.972 17 670.972 16.328C670.972 15.528 671.148 14.856 671.5 14.312C671.852 13.768 672.316 13.336 672.892 13.016C673.468 12.664 674.092 12.424 674.764 12.296C675.468 12.136 676.156 12.056 676.828 12.056C677.692 12.056 678.508 12.168 679.276 12.392C680.044 12.584 680.716 12.904 681.292 13.352C681.9 13.8 682.38 14.376 682.732 15.08C683.084 15.752 683.276 16.552 683.308 17.48ZM808.96 7.88V10.04H817.84V35H820.864V1.4H818.416C818.192 2.936 817.808 4.136 817.264 5C816.752 5.832 816.096 6.456 815.296 6.872C814.528 7.288 813.6 7.56 812.512 7.688C811.456 7.784 810.272 7.848 808.96 7.88ZM899.808 17.48H902.832C902.768 16.136 902.496 14.968 902.016 13.976C901.536 12.984 900.88 12.152 900.048 11.48C899.248 10.808 898.304 10.312 897.216 9.992C896.16 9.672 895.008 9.512 893.76 9.512C892.672 9.512 891.568 9.64 890.448 9.896C889.36 10.152 888.368 10.552 887.472 11.096C886.576 11.64 885.84 12.36 885.264 13.256C884.72 14.152 884.448 15.224 884.448 16.472C884.448 17.528 884.624 18.424 884.976 19.16C885.328 19.864 885.808 20.472 886.416 20.984C887.056 21.464 887.792 21.88 888.624 22.232C889.456 22.552 890.368 22.84 891.36 23.096L895.248 23.96C895.92 24.12 896.576 24.312 897.216 24.536C897.888 24.76 898.48 25.048 898.992 25.4C899.504 25.72 899.904 26.136 900.192 26.648C900.512 27.128 900.672 27.736 900.672 28.472C900.672 29.336 900.448 30.072 900 30.68C899.584 31.256 899.04 31.736 898.368 32.12C897.696 32.504 896.96 32.776 896.16 32.936C895.392 33.096 894.64 33.176 893.904 33.176C891.888 33.176 890.192 32.664 888.816 31.64C887.472 30.584 886.736 29.032 886.608 26.984H883.584C883.84 30.024 884.864 32.232 886.656 33.608C888.48 34.984 890.848 35.672 893.76 35.672C894.912 35.672 896.08 35.544 897.264 35.288C898.448 35.032 899.504 34.616 900.432 34.04C901.392 33.432 902.176 32.664 902.784 31.736C903.392 30.776 903.696 29.624 903.696 28.28C903.696 27.192 903.488 26.248 903.072 25.448C902.656 24.648 902.112 23.976 901.44 23.432C900.8 22.888 900.048 22.456 899.184 22.136C898.352 21.784 897.504 21.544 896.64 21.416L892.608 20.504C892.096 20.376 891.536 20.216 890.928 20.024C890.32 19.8 889.76 19.528 889.248 19.208C888.736 18.888 888.304 18.504 887.952 18.056C887.632 17.576 887.472 17 887.472 16.328C887.472 15.528 887.648 14.856 888 14.312C888.352 13.768 888.816 13.336 889.392 13.016C889.968 12.664 890.592 12.424 891.264 12.296C891.968 12.136 892.656 12.056 893.328 12.056C894.192 12.056 895.008 12.168 895.776 12.392C896.544 12.584 897.216 12.904 897.792 13.352C898.4 13.8 898.88 14.376 899.232 15.08C899.584 15.752 899.776 16.552 899.808 17.48ZM964.006 10.232V2.792H960.982V10.232H956.662V12.776H960.982V29.72C960.95 31.832 961.334 33.288 962.134 34.088C962.934 34.856 964.342 35.24 966.358 35.24C966.806 35.24 967.254 35.224 967.702 35.192C968.15 35.16 968.598 35.144 969.046 35.144V32.6C968.182 32.696 967.318 32.744 966.454 32.744C965.366 32.68 964.678 32.376 964.39 31.832C964.134 31.256 964.006 30.472 964.006 29.48V12.776H969.046V10.232H964.006ZM7.912 82.456V151H31.624C42.056 150.744 49.896 147.832 55.144 142.264C60.456 136.632 63.112 128.12 63.112 116.728C63.112 105.336 60.456 96.856 55.144 91.288C49.896 85.656 42.056 82.712 31.624 82.456H7.912ZM14.44 145.432V88.024H28.36C33.288 88.024 37.512 88.568 41.032 89.656C44.616 90.68 47.56 92.344 49.864 94.648C52.168 96.952 53.864 99.928 54.952 103.576C56.04 107.224 56.584 111.608 56.584 116.728C56.584 121.848 56.04 126.232 54.952 129.88C53.864 133.528 52.168 136.504 49.864 138.808C47.56 141.112 44.616 142.808 41.032 143.896C37.512 144.92 33.288 145.432 28.36 145.432H14.44ZM92.8307 82.456V151H140.639V145.432H99.3587V118.36H137.567V112.792H99.3587V88.024H140.159V82.456H92.8307ZM219.049 103.192H225.577C225.129 99.608 224.041 96.44 222.313 93.688C220.649 90.936 218.537 88.632 215.977 86.776C213.481 84.856 210.665 83.416 207.529 82.456C204.457 81.496 201.289 81.016 198.025 81.016C192.649 81.016 187.913 82.008 183.817 83.992C179.785 85.912 176.425 88.536 173.737 91.864C171.049 95.128 169.033 98.904 167.689 103.192C166.345 107.48 165.673 111.992 165.673 116.728C165.673 121.464 166.345 125.976 167.689 130.264C169.033 134.552 171.049 138.328 173.737 141.592C176.425 144.856 179.785 147.48 183.817 149.464C187.913 151.384 192.649 152.344 198.025 152.344C202.057 152.344 205.705 151.704 208.969 150.424C212.297 149.144 215.177 147.32 217.609 144.952C220.041 142.584 222.025 139.704 223.561 136.312C225.097 132.92 226.089 129.112 226.537 124.888H220.009C219.689 127.96 218.953 130.84 217.801 133.528C216.649 136.152 215.145 138.456 213.289 140.44C211.433 142.424 209.225 143.992 206.665 145.144C204.105 146.296 201.225 146.872 198.025 146.872C193.481 146.872 189.577 146.008 186.313 144.28C183.049 142.552 180.361 140.28 178.249 137.464C176.201 134.584 174.665 131.352 173.641 127.768C172.681 124.12 172.201 120.44 172.201 116.728C172.201 112.952 172.681 109.272 173.641 105.688C174.665 102.104 176.201 98.904 178.249 96.088C180.361 93.208 183.049 90.904 186.313 89.176C189.577 87.448 193.481 86.584 198.025 86.584C200.521 86.584 202.889 86.968 205.129 87.736C207.433 88.44 209.513 89.496 211.369 90.904C213.289 92.312 214.889 94.072 216.169 96.184C217.513 98.232 218.473 100.568 219.049 103.192ZM255.731 82.456V151H303.539V145.432H262.259V118.36H300.467V112.792H262.259V88.024H303.059V82.456H255.731ZM331.741 82.456V151H338.269V93.016H338.461L378.397 151H385.693V82.456H379.165V140.44H378.973L339.037 82.456H331.741ZM411.335 82.456V88.024H435.143V151H441.671V88.024H465.575V82.456H411.335ZM497.703 115V88.024H522.087C527.079 88.024 530.791 89.24 533.223 91.672C535.655 94.104 536.871 97.432 536.871 101.656C536.871 103.768 536.455 105.656 535.623 107.32C534.855 108.92 533.799 110.296 532.455 111.448C531.111 112.6 529.543 113.496 527.751 114.136C525.959 114.712 524.071 115 522.087 115H497.703ZM491.175 82.456V151H497.703V120.568H522.471C525.543 120.44 527.943 120.952 529.671 122.104C531.463 123.256 532.807 124.792 533.703 126.712C534.663 128.568 535.271 130.712 535.527 133.144C535.847 135.512 536.071 137.912 536.199 140.344C536.263 141.048 536.327 141.88 536.391 142.84C536.455 143.8 536.519 144.792 536.583 145.816C536.711 146.776 536.871 147.736 537.063 148.696C537.319 149.592 537.639 150.36 538.023 151H545.223C544.519 150.168 543.943 149.016 543.495 147.544C543.111 146.008 542.823 144.408 542.631 142.744C542.439 141.016 542.311 139.32 542.247 137.656C542.183 135.992 542.119 134.584 542.055 133.432C541.927 131.384 541.639 129.496 541.191 127.768C540.807 125.976 540.135 124.408 539.175 123.064C538.279 121.72 537.095 120.632 535.623 119.8C534.151 118.904 532.295 118.296 530.055 117.976V117.784C534.471 116.888 537.799 114.84 540.039 111.64C542.279 108.44 543.399 104.664 543.399 100.312C543.399 97.24 542.823 94.584 541.671 92.344C540.583 90.04 539.079 88.184 537.159 86.776C535.303 85.304 533.095 84.216 530.535 83.512C528.039 82.808 525.383 82.456 522.567 82.456H491.175ZM584.102 124.12L597.83 88.984L611.078 124.12H584.102ZM594.47 82.456L566.918 151H573.83L582.086 129.688H613.286L621.638 151H628.646L601.766 82.456H594.47ZM654.074 82.456V151H699.002V145.432H660.602V82.456H654.074ZM725.317 82.456V151H731.845V82.456H725.317ZM761.958 82.456V88.024H804.006L758.886 145.24V151H812.262V145.432H766.182L811.302 88.216V82.456H761.958ZM839.643 82.456V151H887.451V145.432H846.171V118.36H884.379V112.792H846.171V88.024H886.971V82.456H839.643ZM915.75 82.456V151H939.462C949.894 150.744 957.734 147.832 962.982 142.264C968.294 136.632 970.95 128.12 970.95 116.728C970.95 105.336 968.294 96.856 962.982 91.288C957.734 85.656 949.894 82.712 939.462 82.456H915.75ZM922.278 145.432V88.024H936.198C941.126 88.024 945.35 88.568 948.87 89.656C952.454 90.68 955.398 92.344 957.702 94.648C960.006 96.952 961.702 99.928 962.79 103.576C963.878 107.224 964.422 111.608 964.422 116.728C964.422 121.848 963.878 126.232 962.79 129.88C961.702 133.528 960.006 136.504 957.702 138.808C955.398 141.112 952.454 142.808 948.87 143.896C945.35 144.92 941.126 145.432 936.198 145.432H922.278ZM4.456 174.728V209H16.312C21.528 208.872 25.448 207.416 28.072 204.632C30.728 201.816 32.056 197.56 32.056 191.864C32.056 186.168 30.728 181.928 28.072 179.144C25.448 176.328 21.528 174.856 16.312 174.728H4.456ZM7.72 206.216V177.512H14.68C17.144 177.512 19.256 177.784 21.016 178.328C22.808 178.84 24.28 179.672 25.432 180.824C26.584 181.976 27.432 183.464 27.976 185.288C28.52 187.112 28.792 189.304 28.792 191.864C28.792 194.424 28.52 196.616 27.976 198.44C27.432 200.264 26.584 201.752 25.432 202.904C24.28 204.056 22.808 204.904 21.016 205.448C19.256 205.96 17.144 206.216 14.68 206.216H7.72ZM75.8594 184.232V209H78.8834V195.8C78.8834 194.488 79.1074 193.288 79.5554 192.2C80.0034 191.08 80.6274 190.12 81.4274 189.32C82.2594 188.52 83.2354 187.912 84.3554 187.496C85.4754 187.048 86.7234 186.856 88.0994 186.92V183.896C85.8594 183.8 83.9234 184.296 82.2914 185.384C80.6914 186.472 79.5074 188.024 78.7394 190.04H78.6434V184.232H75.8594ZM130.168 174.728V179.576H133.192V174.728H130.168ZM130.168 184.232V209H133.192V184.232H130.168ZM175.315 184.232L184.867 209H188.083L197.347 184.232H194.227L186.547 205.976H186.451L178.675 184.232H175.315ZM257.246 194.888H241.214C241.342 193.768 241.598 192.68 241.982 191.624C242.398 190.536 242.942 189.592 243.614 188.792C244.286 187.96 245.102 187.304 246.062 186.824C247.022 186.312 248.126 186.056 249.374 186.056C250.59 186.056 251.678 186.312 252.638 186.824C253.598 187.304 254.414 187.96 255.086 188.792C255.758 189.592 256.27 190.52 256.622 191.576C257.006 192.632 257.214 193.736 257.246 194.888ZM241.214 197.432H260.27C260.334 195.704 260.174 194.008 259.79 192.344C259.406 190.648 258.766 189.16 257.87 187.88C257.006 186.568 255.87 185.512 254.462 184.712C253.054 183.912 251.358 183.512 249.374 183.512C247.422 183.512 245.726 183.896 244.286 184.664C242.878 185.4 241.726 186.392 240.83 187.64C239.934 188.856 239.262 190.248 238.814 191.816C238.398 193.384 238.19 194.984 238.19 196.616C238.19 198.376 238.398 200.056 238.814 201.656C239.262 203.224 239.934 204.616 240.83 205.832C241.726 207.016 242.878 207.96 244.286 208.664C245.726 209.336 247.422 209.672 249.374 209.672C252.51 209.672 254.926 208.904 256.622 207.368C258.35 205.832 259.534 203.656 260.174 200.84H257.15C256.67 202.76 255.806 204.296 254.558 205.448C253.31 206.6 251.582 207.176 249.374 207.176C247.934 207.176 246.702 206.872 245.678 206.264C244.654 205.656 243.806 204.888 243.134 203.96C242.462 203.032 241.966 201.992 241.646 200.84C241.358 199.656 241.214 198.52 241.214 197.432ZM361.352 195.56L368.216 177.992L374.84 195.56H361.352ZM366.536 174.728L352.76 209H356.216L360.344 198.344H375.944L380.12 209H383.624L370.184 174.728H366.536ZM425.282 184.232V218.12H428.306V204.296H428.402C428.722 205.192 429.17 205.976 429.746 206.648C430.354 207.32 431.042 207.88 431.81 208.328C432.578 208.776 433.41 209.112 434.306 209.336C435.202 209.56 436.098 209.672 436.994 209.672C438.882 209.672 440.514 209.336 441.89 208.664C443.298 207.96 444.466 207.016 445.394 205.832C446.322 204.616 447.01 203.224 447.458 201.656C447.906 200.056 448.13 198.376 448.13 196.616C448.13 194.856 447.906 193.192 447.458 191.624C447.01 190.024 446.322 188.632 445.394 187.448C444.466 186.232 443.298 185.272 441.89 184.568C440.514 183.864 438.882 183.512 436.994 183.512C434.978 183.512 433.17 183.992 431.57 184.952C430.002 185.88 428.866 187.208 428.162 188.936H428.066V184.232H425.282ZM445.106 196.616C445.106 197.896 444.946 199.176 444.626 200.456C444.338 201.704 443.858 202.824 443.186 203.816C442.546 204.808 441.714 205.624 440.69 206.264C439.666 206.872 438.434 207.176 436.994 207.176C435.394 207.176 434.034 206.872 432.914 206.264C431.826 205.624 430.93 204.808 430.226 203.816C429.554 202.824 429.058 201.704 428.738 200.456C428.45 199.176 428.306 197.896 428.306 196.616C428.306 195.208 428.434 193.864 428.69 192.584C428.978 191.304 429.458 190.184 430.13 189.224C430.802 188.264 431.698 187.496 432.818 186.92C433.938 186.344 435.33 186.056 436.994 186.056C438.434 186.056 439.666 186.376 440.69 187.016C441.714 187.624 442.546 188.424 443.186 189.416C443.858 190.408 444.338 191.544 444.626 192.824C444.946 194.072 445.106 195.336 445.106 196.616ZM491.965 184.232V218.12H494.989V204.296H495.085C495.405 205.192 495.853 205.976 496.429 206.648C497.037 207.32 497.725 207.88 498.493 208.328C499.261 208.776 500.093 209.112 500.989 209.336C501.885 209.56 502.781 209.672 503.677 209.672C505.565 209.672 507.197 209.336 508.573 208.664C509.981 207.96 511.149 207.016 512.077 205.832C513.005 204.616 513.693 203.224 514.141 201.656C514.589 200.056 514.813 198.376 514.813 196.616C514.813 194.856 514.589 193.192 514.141 191.624C513.693 190.024 513.005 188.632 512.077 187.448C511.149 186.232 509.981 185.272 508.573 184.568C507.197 183.864 505.565 183.512 503.677 183.512C501.661 183.512 499.853 183.992 498.253 184.952C496.685 185.88 495.549 187.208 494.845 188.936H494.749V184.232H491.965ZM511.789 196.616C511.789 197.896 511.629 199.176 511.309 200.456C511.021 201.704 510.541 202.824 509.869 203.816C509.229 204.808 508.397 205.624 507.373 206.264C506.349 206.872 505.117 207.176 503.677 207.176C502.077 207.176 500.717 206.872 499.597 206.264C498.509 205.624 497.613 204.808 496.909 203.816C496.237 202.824 495.741 201.704 495.421 200.456C495.133 199.176 494.989 197.896 494.989 196.616C494.989 195.208 495.117 193.864 495.373 192.584C495.661 191.304 496.141 190.184 496.813 189.224C497.485 188.264 498.381 187.496 499.501 186.92C500.621 186.344 502.013 186.056 503.677 186.056C505.117 186.056 506.349 186.376 507.373 187.016C508.397 187.624 509.229 188.424 509.869 189.416C510.541 190.408 511.021 191.544 511.309 192.824C511.629 194.072 511.789 195.336 511.789 196.616ZM558.696 174.728V209H561.72V174.728H558.696ZM606.675 174.728V179.576H609.699V174.728H606.675ZM606.675 184.232V209H609.699V184.232H606.675ZM672.078 192.008H675.102C674.75 189.16 673.646 187.032 671.79 185.624C669.966 184.216 667.726 183.512 665.07 183.512C663.182 183.512 661.502 183.864 660.03 184.568C658.59 185.272 657.374 186.216 656.382 187.4C655.39 188.584 654.638 189.976 654.126 191.576C653.614 193.144 653.358 194.824 653.358 196.616C653.358 198.408 653.614 200.104 654.126 201.704C654.638 203.272 655.39 204.648 656.382 205.832C657.374 207.016 658.59 207.96 660.03 208.664C661.502 209.336 663.182 209.672 665.07 209.672C667.886 209.672 670.19 208.84 671.982 207.176C673.774 205.48 674.878 203.128 675.294 200.12H672.27C672.174 201.144 671.918 202.088 671.502 202.952C671.086 203.816 670.558 204.568 669.918 205.208C669.278 205.816 668.542 206.296 667.71 206.648C666.878 207 665.998 207.176 665.07 207.176C663.63 207.176 662.366 206.872 661.278 206.264C660.19 205.656 659.278 204.856 658.542 203.864C657.838 202.872 657.294 201.752 656.91 200.504C656.558 199.224 656.382 197.928 656.382 196.616C656.382 195.304 656.558 194.024 656.91 192.776C657.294 191.496 657.838 190.36 658.542 189.368C659.278 188.376 660.19 187.576 661.278 186.968C662.366 186.36 663.63 186.056 665.07 186.056C667.086 186.056 668.654 186.584 669.774 187.64C670.894 188.696 671.662 190.152 672.078 192.008ZM718.329 191.816H721.353C721.417 189.8 722.057 188.344 723.273 187.448C724.489 186.52 726.057 186.056 727.977 186.056C728.873 186.056 729.705 186.136 730.473 186.296C731.273 186.424 731.961 186.68 732.537 187.064C733.145 187.448 733.609 187.976 733.929 188.648C734.281 189.288 734.457 190.12 734.457 191.144C734.457 191.816 734.361 192.36 734.169 192.776C734.009 193.192 733.769 193.528 733.449 193.784C733.129 194.008 732.729 194.168 732.249 194.264C731.769 194.36 731.209 194.44 730.569 194.504C728.937 194.696 727.321 194.904 725.721 195.128C724.153 195.32 722.729 195.672 721.449 196.184C720.201 196.696 719.193 197.448 718.425 198.44C717.657 199.4 717.273 200.744 717.273 202.472C717.273 203.72 717.481 204.808 717.897 205.736C718.345 206.632 718.937 207.384 719.673 207.992C720.441 208.568 721.321 208.984 722.313 209.24C723.337 209.528 724.425 209.672 725.577 209.672C726.793 209.672 727.833 209.56 728.697 209.336C729.593 209.112 730.377 208.792 731.049 208.376C731.753 207.96 732.377 207.448 732.921 206.84C733.497 206.2 734.057 205.48 734.601 204.68H734.697C734.697 205.32 734.729 205.912 734.793 206.456C734.889 206.968 735.065 207.416 735.321 207.8C735.577 208.184 735.929 208.488 736.377 208.712C736.857 208.904 737.481 209 738.249 209C738.665 209 739.001 208.984 739.257 208.952C739.545 208.92 739.865 208.872 740.217 208.808V206.264C739.929 206.392 739.609 206.456 739.257 206.456C738.073 206.456 737.481 205.848 737.481 204.632V191.48C737.481 189.816 737.209 188.472 736.665 187.448C736.121 186.392 735.417 185.576 734.553 185C733.689 184.424 732.713 184.04 731.625 183.848C730.537 183.624 729.449 183.512 728.361 183.512C726.921 183.512 725.609 183.672 724.425 183.992C723.241 184.312 722.201 184.808 721.305 185.48C720.441 186.152 719.753 187.016 719.241 188.072C718.729 189.128 718.425 190.376 718.329 191.816ZM734.457 195.464V199.4C734.457 200.616 734.217 201.704 733.737 202.664C733.289 203.624 732.665 204.44 731.865 205.112C731.097 205.784 730.185 206.296 729.129 206.648C728.073 207 726.969 207.176 725.817 207.176C725.113 207.176 724.425 207.064 723.753 206.84C723.081 206.616 722.489 206.296 721.977 205.88C721.465 205.432 721.049 204.92 720.729 204.344C720.441 203.736 720.297 203.048 720.297 202.28C720.297 201.064 720.649 200.136 721.353 199.496C722.089 198.824 723.017 198.312 724.137 197.96C725.257 197.608 726.489 197.352 727.833 197.192C729.209 197 730.537 196.792 731.817 196.568C732.233 196.504 732.713 196.392 733.257 196.232C733.801 196.072 734.169 195.816 734.361 195.464H734.457ZM787.427 184.232V176.792H784.403V184.232H780.083V186.776H784.403V203.72C784.371 205.832 784.755 207.288 785.555 208.088C786.355 208.856 787.763 209.24 789.779 209.24C790.227 209.24 790.675 209.224 791.123 209.192C791.571 209.16 792.019 209.144 792.467 209.144V206.6C791.603 206.696 790.739 206.744 789.875 206.744C788.787 206.68 788.099 206.376 787.811 205.832C787.555 205.256 787.427 204.472 787.427 203.48V186.776H792.467V184.232H787.427ZM835.999 174.728V179.576H839.023V174.728H835.999ZM835.999 184.232V209H839.023V184.232H835.999ZM894.394 186.056C895.834 186.056 897.098 186.36 898.186 186.968C899.274 187.576 900.17 188.376 900.874 189.368C901.61 190.36 902.154 191.496 902.506 192.776C902.89 194.024 903.082 195.304 903.082 196.616C903.082 197.928 902.89 199.224 902.506 200.504C902.154 201.752 901.61 202.872 900.874 203.864C900.17 204.856 899.274 205.656 898.186 206.264C897.098 206.872 895.834 207.176 894.394 207.176C892.954 207.176 891.69 206.872 890.602 206.264C889.514 205.656 888.602 204.856 887.866 203.864C887.162 202.872 886.618 201.752 886.234 200.504C885.882 199.224 885.706 197.928 885.706 196.616C885.706 195.304 885.882 194.024 886.234 192.776C886.618 191.496 887.162 190.36 887.866 189.368C888.602 188.376 889.514 187.576 890.602 186.968C891.69 186.36 892.954 186.056 894.394 186.056ZM894.394 183.512C892.506 183.512 890.826 183.864 889.354 184.568C887.914 185.272 886.698 186.216 885.706 187.4C884.714 188.584 883.962 189.976 883.45 191.576C882.938 193.144 882.682 194.824 882.682 196.616C882.682 198.408 882.938 200.104 883.45 201.704C883.962 203.272 884.714 204.648 885.706 205.832C886.698 207.016 887.914 207.96 889.354 208.664C890.826 209.336 892.506 209.672 894.394 209.672C896.282 209.672 897.946 209.336 899.386 208.664C900.858 207.96 902.09 207.016 903.082 205.832C904.074 204.648 904.826 203.272 905.338 201.704C905.85 200.104 906.106 198.408 906.106 196.616C906.106 194.824 905.85 193.144 905.338 191.576C904.826 189.976 904.074 188.584 903.082 187.4C902.09 186.216 900.858 185.272 899.386 184.568C897.946 183.864 896.282 183.512 894.394 183.512ZM949.674 184.232V209H952.698V194.552C952.73 193.336 952.922 192.216 953.274 191.192C953.658 190.136 954.17 189.24 954.81 188.504C955.482 187.736 956.282 187.144 957.21 186.728C958.17 186.28 959.258 186.056 960.474 186.056C961.69 186.056 962.698 186.248 963.498 186.632C964.33 187.016 964.986 187.544 965.466 188.216C965.946 188.888 966.282 189.688 966.474 190.616C966.666 191.512 966.762 192.488 966.762 193.544V209H969.786V193.064C969.786 191.592 969.642 190.264 969.354 189.08C969.066 187.896 968.57 186.904 967.866 186.104C967.162 185.272 966.218 184.632 965.034 184.184C963.882 183.736 962.442 183.512 960.714 183.512C958.954 183.512 957.338 183.976 955.866 184.904C954.394 185.8 953.37 187 952.794 188.504H952.698V184.232H949.674Z" fill="#666666"/>
</svg>
