<svg width="40" height="36" viewBox="0 0 40 36" fill="none" xmlns="http://www.w3.org/2000/svg">
<path fill-rule="evenodd" clip-rule="evenodd" d="M21.7158 0.990614C20.9532 -0.330203 19.0468 -0.330206 18.2842 0.990612L0.26839 32.1949C-0.494184 33.5157 0.459031 35.1668 1.98418 35.1668H38.0158C39.541 35.1668 40.4942 33.5157 39.7316 32.1949L21.7158 0.990614ZM22.4769 11.5573V10.4016C22.4769 9.03381 21.3681 7.92503 20.0003 7.92503C18.6326 7.92503 17.5238 9.03381 17.5238 10.4016V11.5573L18.7324 23.9454C18.7961 24.598 19.3447 25.0957 20.0003 25.0957C20.656 25.0957 21.2046 24.598 21.2683 23.9454L22.4769 11.5573ZM17.689 29.7129V29.3827C17.689 28.1061 18.7238 27.0713 20.0004 27.0713C21.277 27.0713 22.3118 28.1061 22.3118 29.3827V29.7129C22.3118 30.9895 21.277 32.0243 20.0004 32.0243C18.7238 32.0243 17.689 30.9895 17.689 29.7129Z" fill="#E2E2E6"/>
</svg>
