<svg width="28" height="28" viewBox="0 0 28 28" fill="none" xmlns="http://www.w3.org/2000/svg">
<path fill-rule="evenodd" clip-rule="evenodd" d="M24.5002 5.83317H19.8335V4.6665C19.8335 2.68317 18.3168 1.1665 16.3335 1.1665H11.6668C9.6835 1.1665 8.16683 2.68317 8.16683 4.6665V5.83317H3.50016C2.80016 5.83317 2.3335 6.29984 2.3335 6.99984C2.3335 7.69984 2.80016 8.1665 3.50016 8.1665H4.66683V23.3332C4.66683 25.3165 6.1835 26.8332 8.16683 26.8332H19.8335C21.8168 26.8332 23.3335 25.3165 23.3335 23.3332V8.1665H24.5002C25.2002 8.1665 25.6668 7.69984 25.6668 6.99984C25.6668 6.29984 25.2002 5.83317 24.5002 5.83317ZM10.5002 4.6665C10.5002 3.9665 10.9668 3.49984 11.6668 3.49984H16.3335C17.0335 3.49984 17.5002 3.9665 17.5002 4.6665V5.83317H10.5002V4.6665ZM19.8335 24.4998C20.5335 24.4998 21.0002 24.0332 21.0002 23.3332V8.1665H7.00016V23.3332C7.00016 24.0332 7.46683 24.4998 8.16683 24.4998H19.8335ZM12.8335 12.8332V19.8332C12.8335 20.5332 12.3668 20.9998 11.6668 20.9998C10.9668 20.9998 10.5002 20.5332 10.5002 19.8332V12.8332C10.5002 12.1332 10.9668 11.6665 11.6668 11.6665C12.3668 11.6665 12.8335 12.1332 12.8335 12.8332ZM17.5002 19.8332V12.8332C17.5002 12.1332 17.0335 11.6665 16.3335 11.6665C15.6335 11.6665 15.1668 12.1332 15.1668 12.8332V19.8332C15.1668 20.5332 15.6335 20.9998 16.3335 20.9998C17.0335 20.9998 17.5002 20.5332 17.5002 19.8332Z" fill="#333333"/>
<mask id="mask0" mask-type="alpha" maskUnits="userSpaceOnUse" x="2" y="1" width="24" height="26">
<path fill-rule="evenodd" clip-rule="evenodd" d="M24.5002 5.83317H19.8335V4.6665C19.8335 2.68317 18.3168 1.1665 16.3335 1.1665H11.6668C9.6835 1.1665 8.16683 2.68317 8.16683 4.6665V5.83317H3.50016C2.80016 5.83317 2.3335 6.29984 2.3335 6.99984C2.3335 7.69984 2.80016 8.1665 3.50016 8.1665H4.66683V23.3332C4.66683 25.3165 6.1835 26.8332 8.16683 26.8332H19.8335C21.8168 26.8332 23.3335 25.3165 23.3335 23.3332V8.1665H24.5002C25.2002 8.1665 25.6668 7.69984 25.6668 6.99984C25.6668 6.29984 25.2002 5.83317 24.5002 5.83317ZM10.5002 4.6665C10.5002 3.9665 10.9668 3.49984 11.6668 3.49984H16.3335C17.0335 3.49984 17.5002 3.9665 17.5002 4.6665V5.83317H10.5002V4.6665ZM19.8335 24.4998C20.5335 24.4998 21.0002 24.0332 21.0002 23.3332V8.1665H7.00016V23.3332C7.00016 24.0332 7.46683 24.4998 8.16683 24.4998H19.8335ZM12.8335 12.8332V19.8332C12.8335 20.5332 12.3668 20.9998 11.6668 20.9998C10.9668 20.9998 10.5002 20.5332 10.5002 19.8332V12.8332C10.5002 12.1332 10.9668 11.6665 11.6668 11.6665C12.3668 11.6665 12.8335 12.1332 12.8335 12.8332ZM17.5002 19.8332V12.8332C17.5002 12.1332 17.0335 11.6665 16.3335 11.6665C15.6335 11.6665 15.1668 12.1332 15.1668 12.8332V19.8332C15.1668 20.5332 15.6335 20.9998 16.3335 20.9998C17.0335 20.9998 17.5002 20.5332 17.5002 19.8332Z" fill="white"/>
</mask>
<g mask="url(#mask0)">
<path fill-rule="evenodd" clip-rule="evenodd" d="M0 0H28V28H0V0Z" fill="#FF0000"/>
</g>
</svg>
