<svg width="24" height="24" viewBox="0 0 24 24" fill="none" xmlns="http://www.w3.org/2000/svg">
<path fill-rule="evenodd" clip-rule="evenodd" d="M20.9 8.6C20.85 8.55 20.825 8.5 20.8 8.45C20.775 8.4 20.75 8.35 20.7 8.3L13.7 1.3C13.6 1.2 13.5 1.1 13.4 1.1C13.3 1 13.1 1 13 1H6C4.3 1 3 2.3 3 4V20C3 21.7 4.3 23 6 23H18C19.7 23 21 21.7 21 20V9C21 8.9 21 8.7 20.9 8.6ZM14 4.40002L17.6 8.00002H14V4.40002ZM6 21H18C18.6 21 19 20.6 19 20V9.99998H13C12.4 9.99998 12 9.59998 12 8.99998V2.99998H6C5.4 2.99998 5 3.39998 5 3.99998V20C5 20.6 5.4 21 6 21Z" fill="black"/>
<mask id="mask0" mask-type="alpha" maskUnits="userSpaceOnUse" x="3" y="1" width="18" height="22">
<path fill-rule="evenodd" clip-rule="evenodd" d="M20.9 8.6C20.85 8.55 20.825 8.5 20.8 8.45C20.775 8.4 20.75 8.35 20.7 8.3L13.7 1.3C13.6 1.2 13.5 1.1 13.4 1.1C13.3 1 13.1 1 13 1H6C4.3 1 3 2.3 3 4V20C3 21.7 4.3 23 6 23H18C19.7 23 21 21.7 21 20V9C21 8.9 21 8.7 20.9 8.6ZM14 4.40002L17.6 8.00002H14V4.40002ZM6 21H18C18.6 21 19 20.6 19 20V9.99998H13C12.4 9.99998 12 9.59998 12 8.99998V2.99998H6C5.4 2.99998 5 3.39998 5 3.99998V20C5 20.6 5.4 21 6 21Z" fill="white"/>
</mask>
<g mask="url(#mask0)">
<path fill-rule="evenodd" clip-rule="evenodd" d="M0 0H24V24H0V0Z" fill="#454545"/>
</g>
<path d="M15.42 14.52C15.3 14.64 15.18 14.7 15 14.7C14.82 14.7 14.7 14.64 14.58 14.52L12.6 12.54V18.9C12.6 19.26 12.36 19.5 12 19.5C11.64 19.5 11.4 19.26 11.4 18.9V12.54L9.42001 14.52C9.18001 14.76 8.82001 14.76 8.58001 14.52C8.34001 14.28 8.34001 13.92 8.58001 13.68L11.58 10.68C11.64 10.62 11.7 10.56 11.76 10.56C11.88 10.5 12.06 10.5 12.24 10.56C12.3 10.62 12.36 10.62 12.42 10.68L15.42 13.68C15.66 13.92 15.66 14.28 15.42 14.52Z" fill="black"/>
<mask id="mask1" mask-type="alpha" maskUnits="userSpaceOnUse" x="8" y="10" width="8" height="10">
<path d="M15.42 14.52C15.3 14.64 15.18 14.7 15 14.7C14.82 14.7 14.7 14.64 14.58 14.52L12.6 12.54V18.9C12.6 19.26 12.36 19.5 12 19.5C11.64 19.5 11.4 19.26 11.4 18.9V12.54L9.42001 14.52C9.18001 14.76 8.82001 14.76 8.58001 14.52C8.34001 14.28 8.34001 13.92 8.58001 13.68L11.58 10.68C11.64 10.62 11.7 10.56 11.76 10.56C11.88 10.5 12.06 10.5 12.24 10.56C12.3 10.62 12.36 10.62 12.42 10.68L15.42 13.68C15.66 13.92 15.66 14.28 15.42 14.52Z" fill="white"/>
</mask>
<g mask="url(#mask1)">
<path fill-rule="evenodd" clip-rule="evenodd" d="M4.8 8.69995H19.2V23.1H4.8V8.69995Z" fill="#454545"/>
</g>
</svg>
