<svg width="24" height="24" viewBox="0 0 24 24" fill="none" xmlns="http://www.w3.org/2000/svg">
<path fill-rule="evenodd" clip-rule="evenodd" d="M11.5 5H20C21.7 5 23 6.3 23 8V19C23 20.7 21.7 22 20 22H4C2.3 22 1 20.7 1 19V5C1 3.3 2.3 2 4 2H9C9.3 2 9.6 2.2 9.8 2.4L11.5 5ZM20 20C20.6 20 21 19.6 21 19V7.99998C21 7.39998 20.6 6.99998 20 6.99998H11C10.7 6.99998 10.4 6.79998 10.2 6.59998L8.5 3.99998H4C3.4 3.99998 3 4.39998 3 4.99998V19C3 19.6 3.4 20 4 20H20Z" fill="black"/>
<mask id="mask0" mask-type="alpha" maskUnits="userSpaceOnUse" x="1" y="2" width="22" height="20">
<path fill-rule="evenodd" clip-rule="evenodd" d="M11.5 5H20C21.7 5 23 6.3 23 8V19C23 20.7 21.7 22 20 22H4C2.3 22 1 20.7 1 19V5C1 3.3 2.3 2 4 2H9C9.3 2 9.6 2.2 9.8 2.4L11.5 5ZM20 20C20.6 20 21 19.6 21 19V7.99998C21 7.39998 20.6 6.99998 20 6.99998H11C10.7 6.99998 10.4 6.79998 10.2 6.59998L8.5 3.99998H4C3.4 3.99998 3 4.39998 3 4.99998V19C3 19.6 3.4 20 4 20H20Z" fill="white"/>
</mask>
<g mask="url(#mask0)">
<path fill-rule="evenodd" clip-rule="evenodd" d="M0 0H24V24H0V0Z" fill="#454545"/>
</g>
<path d="M15.42 13.02C15.3 13.14 15.18 13.2 15 13.2C14.82 13.2 14.7 13.14 14.58 13.02L12.6 11.04V17.4C12.6 17.76 12.36 18 12 18C11.64 18 11.4 17.76 11.4 17.4V11.04L9.42001 13.02C9.18001 13.26 8.82001 13.26 8.58001 13.02C8.34001 12.78 8.34001 12.42 8.58001 12.18L11.58 9.18001C11.64 9.12001 11.7 9.06001 11.76 9.06001C11.88 9.00001 12.06 9.00001 12.24 9.06001C12.3 9.12001 12.36 9.12001 12.42 9.18001L15.42 12.18C15.66 12.42 15.66 12.78 15.42 13.02Z" fill="black"/>
<mask id="mask1" mask-type="alpha" maskUnits="userSpaceOnUse" x="8" y="9" width="8" height="9">
<path d="M15.42 13.02C15.3 13.14 15.18 13.2 15 13.2C14.82 13.2 14.7 13.14 14.58 13.02L12.6 11.04V17.4C12.6 17.76 12.36 18 12 18C11.64 18 11.4 17.76 11.4 17.4V11.04L9.42001 13.02C9.18001 13.26 8.82001 13.26 8.58001 13.02C8.34001 12.78 8.34001 12.42 8.58001 12.18L11.58 9.18001C11.64 9.12001 11.7 9.06001 11.76 9.06001C11.88 9.00001 12.06 9.00001 12.24 9.06001C12.3 9.12001 12.36 9.12001 12.42 9.18001L15.42 12.18C15.66 12.42 15.66 12.78 15.42 13.02Z" fill="white"/>
</mask>
<g mask="url(#mask1)">
<path fill-rule="evenodd" clip-rule="evenodd" d="M4.8 7.19995H19.2V21.6H4.8V7.19995Z" fill="#454545"/>
</g>
</svg>
