<svg width="32" height="32" viewBox="0 0 32 32" fill="none" xmlns="http://www.w3.org/2000/svg">
<path d="M24.9333 23.0666C25.4666 23.6 25.4666 24.4 24.9333 24.9333C24.6666 25.2 24.4 25.3333 24 25.3333C23.6 25.3333 23.3333 25.2 23.0666 24.9333L16 17.8666L8.93329 24.9333C8.66663 25.2 8.39996 25.3333 7.99996 25.3333C7.59996 25.3333 7.33329 25.2 7.06663 24.9333C6.53329 24.4 6.53329 23.6 7.06663 23.0666L14.1333 16L7.06663 8.93329C6.53329 8.39996 6.53329 7.59996 7.06663 7.06663C7.59996 6.53329 8.39996 6.53329 8.93329 7.06663L16 14.1333L23.0666 7.06663C23.6 6.53329 24.4 6.53329 24.9333 7.06663C25.4666 7.59996 25.4666 8.39996 24.9333 8.93329L17.8666 16L24.9333 23.0666Z" fill="#F41818"/>
<mask id="mask0" mask-type="alpha" maskUnits="userSpaceOnUse" x="6" y="6" width="20" height="20">
<path d="M24.9333 23.0666C25.4666 23.6 25.4666 24.4 24.9333 24.9333C24.6666 25.2 24.4 25.3333 24 25.3333C23.6 25.3333 23.3333 25.2 23.0666 24.9333L16 17.8666L8.93329 24.9333C8.66663 25.2 8.39996 25.3333 7.99996 25.3333C7.59996 25.3333 7.33329 25.2 7.06663 24.9333C6.53329 24.4 6.53329 23.6 7.06663 23.0666L14.1333 16L7.06663 8.93329C6.53329 8.39996 6.53329 7.59996 7.06663 7.06663C7.59996 6.53329 8.39996 6.53329 8.93329 7.06663L16 14.1333L23.0666 7.06663C23.6 6.53329 24.4 6.53329 24.9333 7.06663C25.4666 7.59996 25.4666 8.39996 24.9333 8.93329L17.8666 16L24.9333 23.0666Z" fill="white"/>
</mask>
<g mask="url(#mask0)">
<path fill-rule="evenodd" clip-rule="evenodd" d="M0 0H32V32H0V0Z" fill="#F41818"/>
</g>
</svg>
